# Blender 4.3.2
# www.blender.org
mtllib Stalagmites_3.mtl
o Stalagmites_003
v -0.061664 3.054684 0.239481
v 0.007909 3.054684 0.192516
v -0.068444 2.972896 0.236848
v 0.007533 2.972896 0.193490
v -0.026537 3.054684 0.299014
v 0.042925 3.054684 0.271702
v -0.027077 2.972896 0.301183
v 0.035191 2.972896 0.269779
v -0.068444 2.972896 0.236848
v 0.007533 2.972896 0.193490
v -0.068764 2.891108 0.242017
v -0.006053 2.891108 0.219211
v -0.027077 2.972896 0.301183
v 0.035191 2.972896 0.269779
v -0.035464 2.891108 0.313431
v 0.032531 2.891108 0.273602
v -0.068764 2.891108 0.242017
v -0.006053 2.891108 0.219211
v -0.055381 2.809320 0.238834
v 0.003855 2.809320 0.211111
v -0.035464 2.891108 0.313431
v 0.032531 2.891108 0.273602
v -0.024648 2.809320 0.302246
v 0.038781 2.809320 0.268221
v -0.055381 2.809320 0.238834
v 0.003855 2.809320 0.211111
v -0.051657 2.727531 0.244559
v -0.004331 2.727531 0.222504
v -0.024648 2.809320 0.302246
v 0.038781 2.809320 0.268221
v -0.027541 2.727531 0.297100
v 0.023569 2.727531 0.268007
v -0.051657 2.727531 0.244559
v -0.004331 2.727531 0.222504
v -0.041173 2.645743 0.250504
v -0.010348 2.645743 0.233288
v -0.027541 2.727531 0.297100
v 0.023569 2.727531 0.268007
v -0.025858 2.645743 0.283027
v 0.000724 2.645743 0.263566
v -0.055453 3.114713 0.244214
v -0.003793 3.113586 0.218963
v -0.061755 3.054419 0.239518
v 0.007931 3.054768 0.192509
v -0.026473 3.112822 0.292276
v 0.024239 3.114910 0.269105
v -0.026665 3.054273 0.299098
v 0.042900 3.054577 0.271720
v -0.041155 2.645644 0.250513
v -0.010371 2.645550 0.233338
v -0.014898 2.584146 0.250839
v -0.007908 2.587945 0.247643
v -0.025849 2.645488 0.282970
v 0.000778 2.645981 0.263574
v -0.009796 2.580416 0.258995
v -0.003827 2.587707 0.255169
v -0.072541 3.013790 0.240200
v -0.037548 3.054684 0.199433
v 0.006314 3.013790 0.184741
v -0.034482 2.972896 0.208343
v -0.066825 2.972896 0.283367
v 0.034238 2.972896 0.230349
v 0.007907 2.972896 0.291978
v -0.030338 3.013790 0.297586
v 0.035105 3.013790 0.273870
v 0.013527 3.054684 0.299725
v -0.052179 3.054684 0.275684
v 0.036215 3.054684 0.229312
v -0.060022 2.932002 0.238221
v -0.034482 2.972896 0.208343
v 0.005618 2.932002 0.202439
v -0.036775 2.891108 0.222255
v -0.071244 2.891108 0.285685
v 0.024886 2.891108 0.235255
v 0.005375 2.891108 0.302684
v -0.026972 2.932002 0.306755
v 0.036463 2.932002 0.268199
v 0.007907 2.972896 0.291978
v -0.066825 2.972896 0.283367
v 0.034238 2.972896 0.230349
v -0.065982 2.850214 0.239552
v -0.036775 2.891108 0.222255
v 0.000561 2.850214 0.208379
v -0.026452 2.809320 0.220668
v -0.054218 2.809320 0.276753
v 0.029562 2.809320 0.232802
v 0.013224 2.809320 0.297101
v -0.030071 2.850214 0.306812
v 0.031281 2.850214 0.269982
v 0.005375 2.891108 0.302684
v -0.071244 2.891108 0.285685
v 0.024886 2.891108 0.235255
v -0.055207 2.768426 0.246176
v -0.026452 2.809320 0.220668
v -0.008343 2.768426 0.226723
v -0.032936 2.727531 0.221060
v -0.049253 2.727531 0.274149
v 0.016023 2.727531 0.239904
v 0.003568 2.727531 0.290652
v -0.032788 2.768426 0.305066
v 0.021098 2.768426 0.269970
v 0.013224 2.809320 0.297101
v -0.054218 2.809320 0.276753
v 0.029562 2.809320 0.232802
v -0.040778 2.686637 0.242954
v -0.032936 2.727531 0.221060
v 0.000579 2.686637 0.222884
v -0.029357 2.645743 0.236054
v -0.039824 2.645743 0.269202
v 0.000867 2.645743 0.247855
v -0.008200 2.645743 0.276373
v -0.018773 2.686637 0.284915
v 0.019896 2.686637 0.261857
v 0.003568 2.727531 0.290652
v -0.049253 2.727531 0.274149
v 0.016023 2.727531 0.239904
v -0.061366 3.092571 0.237093
v -0.032086 3.117542 0.227111
v 0.005369 3.091794 0.206922
v -0.037543 3.054708 0.199431
v -0.052327 3.054241 0.275761
v 0.036198 3.054614 0.229321
v 0.013478 3.054477 0.299763
v -0.023495 3.091830 0.299435
v 0.046366 3.093150 0.270997
v -0.000049 3.119105 0.288930
v -0.047576 3.118706 0.273269
v 0.014728 3.118395 0.240584
v -0.028495 2.607726 0.252678
v -0.029346 2.645589 0.236090
v -0.011676 2.607413 0.243442
v -0.010266 2.581768 0.248189
v -0.011536 2.575394 0.254362
v -0.005372 2.586683 0.251128
v -0.005073 2.578279 0.256609
v -0.020194 2.606076 0.271603
v -0.004955 2.608691 0.260191
v -0.008188 2.645829 0.276387
v -0.039795 2.645576 0.269187
v 0.000883 2.645813 0.247847
v -0.044847 3.013790 0.197110
v 0.003914 3.013790 0.297156
v -0.058498 3.013790 0.278998
v 0.040093 3.013790 0.227277
v -0.034177 2.932002 0.210347
v 0.012732 2.932002 0.300233
v -0.060375 2.932002 0.279983
v 0.034670 2.932002 0.230122
v -0.036589 2.850214 0.212067
v 0.008555 2.850214 0.298203
v -0.065377 2.850214 0.282607
v 0.022033 2.850214 0.236752
v -0.035805 2.768426 0.223932
v 0.002614 2.768426 0.297201
v -0.054668 2.768426 0.276990
v 0.014974 2.768426 0.240455
v -0.024674 2.686637 0.222911
v 0.003820 2.686637 0.277053
v -0.038899 2.686637 0.268717
v 0.018953 2.686637 0.238367
v -0.032981 3.092552 0.210194
v 0.014800 3.093358 0.303180
v -0.017435 3.126902 0.257457
v -0.051639 3.092520 0.275400
v 0.039238 3.093173 0.227725
v -0.021508 2.607581 0.245733
v -0.007189 2.571335 0.252081
v -0.009224 2.606711 0.268657
v -0.028426 2.606182 0.263223
v -0.005273 2.607766 0.251076
vn -0.9660 0.2221 -0.1321
vn 0.3651 0.1375 -0.9208
vn -0.9569 -0.0846 -0.2780
vn 0.3249 -0.2369 -0.9156
vn -0.3144 0.0214 0.9491
vn 0.9146 -0.1023 0.3912
vn -0.1647 0.0546 0.9848
vn 0.8923 -0.0715 0.4457
vn -0.9128 -0.1548 -0.3780
vn 0.2835 -0.1219 -0.9512
vn -0.9043 0.1061 -0.4134
vn 0.1927 -0.3482 -0.9174
vn -0.1717 0.0844 0.9815
vn 0.9312 0.0720 0.3574
vn -0.2475 0.1872 0.9506
vn 0.9455 -0.1184 0.3034
vn -0.8989 -0.0056 -0.4380
vn 0.2777 0.1964 -0.9404
vn -0.8606 -0.2683 -0.4329
vn 0.3231 -0.0296 -0.9459
vn -0.2077 -0.1559 0.9657
vn 0.9661 -0.0506 0.2533
vn -0.2168 -0.1427 0.9657
vn 0.9663 0.1613 0.2009
vn -0.8997 -0.0131 -0.4362
vn 0.2622 -0.3229 -0.9094
vn -0.9427 -0.0723 -0.3256
vn 0.3444 0.0910 -0.9344
vn -0.2777 0.0510 0.9593
vn 0.9185 -0.3508 0.1822
vn -0.3017 -0.1952 0.9332
vn 0.9796 0.0112 0.2005
vn -0.9330 -0.2368 -0.2710
vn 0.3425 0.0242 -0.9392
vn -0.9609 -0.0423 -0.2737
vn 0.3105 -0.3545 -0.8820
vn -0.2509 -0.3219 0.9129
vn 0.9434 -0.1105 0.3126
vn -0.2221 -0.0273 0.9746
vn 0.8646 -0.3608 0.3497
vn -0.6888 0.6980 -0.1959
vn 0.1319 0.7756 -0.6173
vn -0.9788 0.0771 -0.1900
vn 0.2911 0.2462 -0.9244
vn -0.2941 0.6331 0.7160
vn 0.5236 0.8337 0.1751
vn -0.3895 -0.0049 0.9210
vn 0.9440 -0.0874 0.3183
vn -0.8956 -0.3151 -0.3139
vn 0.3358 -0.2571 -0.9062
vn -0.7882 -0.4314 -0.4390
vn 0.3833 -0.1331 -0.9140
vn -0.2267 -0.2935 0.9287
vn 0.9501 -0.1583 0.2686
vn -0.1603 -0.5115 0.8442
vn 0.9937 -0.0438 0.1030
vn -0.9804 0.0746 -0.1822
vn -0.5444 0.1815 -0.8190
vn 0.3109 -0.0498 -0.9491
vn -0.5188 -0.2396 -0.8206
vn -0.8073 0.0926 0.5829
vn 0.9503 -0.1074 -0.2921
vn 0.4026 -0.0355 0.9147
vn -0.2635 0.0434 0.9637
vn 0.8879 -0.0893 0.4512
vn 0.3652 -0.1041 0.9251
vn -0.8098 0.1596 0.5646
vn 0.9423 0.0248 -0.3338
vn -0.9010 -0.0353 -0.4324
vn -0.4866 -0.1162 -0.8659
vn 0.2683 -0.2381 -0.9334
vn -0.4186 -0.1846 -0.8892
vn -0.8720 0.2704 0.4079
vn 0.8240 -0.2891 -0.4872
vn 0.4964 0.0168 0.8680
vn -0.1798 0.1316 0.9749
vn 0.9528 -0.0280 0.3022
vn 0.4833 0.1494 0.8626
vn -0.8636 -0.1144 0.4909
vn 0.9306 -0.0327 -0.3647
vn -0.8911 -0.1339 -0.4335
vn -0.3725 0.1754 -0.9113
vn 0.2958 0.0774 -0.9521
vn -0.3958 -0.1996 -0.8964
vn -0.8607 -0.2634 0.4356
vn 0.8631 0.1541 -0.4809
vn 0.5127 0.0268 0.8581
vn -0.2114 -0.1517 0.9656
vn 0.9718 0.0553 0.2291
vn 0.5054 -0.0821 0.8589
vn -0.8851 -0.1567 0.4382
vn 0.8530 0.0384 -0.5205
vn -0.9371 -0.0431 -0.3464
vn -0.3673 -0.1251 -0.9217
vn 0.2786 -0.1132 -0.9537
vn -0.3739 0.0402 -0.9266
vn -0.9190 -0.1549 0.3627
vn 0.8279 0.0705 -0.5564
vn 0.5433 -0.0969 0.8339
vn -0.3337 -0.0672 0.9403
vn 0.9575 -0.1785 0.2265
vn 0.5347 -0.1500 0.8317
vn -0.9217 0.0574 0.3837
vn 0.7626 -0.4060 -0.5035
vn -0.9381 -0.1459 -0.3142
vn -0.4436 -0.1202 -0.8882
vn 0.3700 -0.1669 -0.9139
vn -0.4868 -0.1979 -0.8508
vn -0.8950 0.0405 0.4443
vn 0.8357 -0.4290 -0.3429
vn 0.5315 -0.1875 0.8261
vn -0.1803 -0.1897 0.9652
vn 0.9272 -0.2386 0.2887
vn 0.4797 -0.2410 0.8437
vn -0.8596 -0.2984 0.4148
vn 0.8692 0.0422 -0.4927
vn -0.9388 0.2206 -0.2645
vn -0.2405 0.8390 -0.4880
vn 0.2651 0.4346 -0.8607
vn -0.4725 0.2406 -0.8478
vn -0.8517 0.0296 0.5232
vn 0.8819 0.0164 -0.4711
vn 0.3518 -0.0622 0.9340
vn -0.3527 0.1487 0.9238
vn 0.8935 0.3598 0.2688
vn 0.1704 0.8587 0.4833
vn -0.5360 0.7831 0.3153
vn 0.3698 0.8959 -0.2462
vn -0.8609 -0.3646 -0.3548
vn -0.4760 -0.2923 -0.8295
vn 0.3405 -0.1870 -0.9215
vn -0.0832 -0.3862 -0.9186
vn -0.5880 -0.7827 0.2043
vn 0.8663 -0.0958 -0.4903
vn 0.7209 -0.4939 0.4861
vn -0.2152 -0.3915 0.8947
vn 0.9686 -0.0968 0.2290
vn 0.6092 -0.1900 0.7699
vn -0.8705 -0.3164 0.3770
vn 0.9294 -0.1787 -0.3229
vn -0.5649 -0.0294 -0.8246
vn 0.3454 -0.0648 0.9362
vn -0.8070 0.1273 0.5766
vn 0.9468 -0.0409 -0.3193
vn -0.4389 -0.1585 -0.8844
vn 0.5126 0.0787 0.8550
vn -0.8859 0.0857 0.4558
vn 0.8894 -0.1598 -0.4282
vn -0.3933 -0.0119 -0.9194
vn 0.5097 -0.0298 0.8598
vn -0.8746 -0.2088 0.4376
vn 0.8592 0.0976 -0.5023
vn -0.4125 -0.0393 -0.9101
vn 0.5005 -0.1154 0.8580
vn -0.9248 -0.0494 0.3773
vn 0.8142 -0.1867 -0.5498
vn -0.4042 -0.1610 -0.9004
vn 0.5390 -0.2194 0.8133
vn -0.8904 -0.1373 0.4340
vn 0.8775 -0.1977 -0.4369
vn -0.4152 0.3684 -0.8318
vn 0.3607 0.2760 0.8909
vn -0.0163 0.9999 -0.0002
vn -0.8463 0.1030 0.5227
vn 0.7926 0.4040 -0.4567
vn -0.4537 -0.2876 -0.8435
vn 0.1632 -0.9796 -0.1171
vn 0.6132 -0.2060 0.7626
vn -0.8386 -0.4324 0.3314
vn 0.9277 -0.0749 -0.3658
vt 0.232689 0.394406
vt 0.224336 0.316074
vt 0.333885 0.307401
vt 0.340374 0.391438
vt 0.000000 0.302870
vt 0.002838 0.223200
vt 0.109927 0.230314
vt 0.111459 0.316857
vt 0.216940 0.220368
vt 0.224335 0.297235
vt 0.445987 0.305464
vt 0.446472 0.380171
vt 0.447228 0.530672
vt 0.442346 0.591298
vt 0.334299 0.573862
vt 0.338678 0.516264
vt 0.222695 0.017280
vt 0.219237 0.076331
vt 0.110113 0.065630
vt 0.114189 0.000000
vt -0.000000 0.071693
vt 0.003640 0.003452
vt 0.224336 0.582353
vt 0.229110 0.515074
vt 0.452441 0.457855
vt 0.342446 0.459504
vt 0.232982 0.457037
vt 0.216796 0.143157
vt 0.109118 0.143026
vt 0.001765 0.144461
vt 0.452441 0.376142
vt 0.452821 0.305464
vt 0.557572 0.305464
vt 0.562370 0.369838
vt 0.671378 0.585613
vt 0.683508 0.660800
vt 0.575245 0.668927
vt 0.562694 0.602839
vt 0.462613 0.669441
vt 0.452441 0.618287
vt 0.664571 0.308631
vt 0.673028 0.368272
vt 0.681045 0.511151
vt 0.675926 0.579511
vt 0.569854 0.585613
vt 0.571979 0.518469
vt 0.452441 0.861805
vt 0.460005 0.794885
vt 0.569088 0.796156
vt 0.562835 0.862678
vt 0.677326 0.805279
vt 0.673932 0.864844
vt 0.463398 0.579699
vt 0.463761 0.520849
vt 0.681245 0.438221
vt 0.567987 0.443538
vt 0.456050 0.451082
vt 0.465663 0.728769
vt 0.573995 0.733876
vt 0.681002 0.738469
vt 0.428870 0.063608
vt 0.435514 0.000000
vt 0.546463 0.001714
vt 0.536763 0.067823
vt 0.224336 0.830832
vt 0.229664 0.779814
vt 0.337607 0.779132
vt 0.332864 0.840181
vt 0.444069 0.775835
vt 0.443227 0.829861
vt 0.656379 0.016582
vt 0.645266 0.072803
vt 0.646483 0.202174
vt 0.656379 0.265756
vt 0.547401 0.274581
vt 0.537208 0.208789
vt 0.440552 0.596989
vt 0.446127 0.659997
vt 0.335786 0.660299
vt 0.333063 0.598854
vt 0.225303 0.658013
vt 0.224336 0.591298
vt 0.438253 0.284365
vt 0.427307 0.214128
vt 0.641390 0.136837
vt 0.531726 0.138055
vt 0.423826 0.137450
vt 0.446847 0.720432
vt 0.336280 0.719567
vt 0.227001 0.722558
vt 0.000000 0.644339
vt 0.002447 0.586419
vt 0.111631 0.607435
vt 0.108962 0.657037
vt 0.656379 0.015143
vt 0.705519 0.002407
vt 0.708239 0.117043
vt 0.661412 0.122015
vt 0.714171 0.226726
vt 0.668473 0.227178
vt 0.221336 0.608554
vt 0.217661 0.659220
vt 0.215502 0.763110
vt 0.221216 0.816847
vt 0.110764 0.824721
vt 0.107733 0.764865
vt 0.851534 0.227178
vt 0.803709 0.226109
vt 0.809460 0.116664
vt 0.865187 0.123298
vt 0.817460 0.003472
vt 0.876411 0.018154
vt 0.000752 0.841464
vt 0.001404 0.776660
vt 0.215467 0.709354
vt 0.107945 0.707896
vt 0.000000 0.708937
vt 0.757123 0.225903
vt 0.756030 0.114762
vt 0.759200 -0.000000
vt 0.831972 0.589221
vt 0.879970 0.596996
vt 0.869922 0.703359
vt 0.826904 0.699075
vt 0.681245 0.307852
vt 0.730304 0.306522
vt 0.740453 0.413148
vt 0.698545 0.418423
vt 0.747942 0.523371
vt 0.715785 0.531577
vt 0.843210 0.808824
vt 0.812745 0.807589
vt 0.750300 0.807725
vt 0.719854 0.808824
vt 0.696752 0.703123
vt 0.737053 0.698303
vt 0.833040 0.531577
vt 0.807019 0.524642
vt 0.815339 0.412322
vt 0.851646 0.419472
vt 0.827822 0.305464
vt 0.879135 0.310038
vt 0.683508 0.595722
vt 0.733321 0.586312
vt 0.782242 0.807600
vt 0.782098 0.697482
vt 0.784229 0.585613
vt 0.779921 0.521713
vt 0.778233 0.410917
vt 0.777034 0.305614
vt 0.017227 0.409883
vt -0.000000 0.362025
vt 0.069044 0.332954
vt 0.075682 0.397420
vt 0.224336 0.241941
vt 0.256042 0.197946
vt 0.321516 0.206112
vt 0.297381 0.267994
vt 0.422352 0.226935
vt 0.398806 0.305464
vt 0.170777 0.316857
vt 0.175047 0.395738
vt 0.177982 0.517835
vt 0.175930 0.586419
vt 0.070987 0.585927
vt 0.078417 0.521712
vt 0.407938 0.000000
vt 0.417976 0.068722
vt 0.323553 0.083590
vt 0.303378 0.013269
vt 0.256050 0.089726
vt 0.224335 0.040404
vt 0.000000 0.553307
vt 0.022365 0.510247
vt 0.739506 0.913669
vt 0.695948 0.932730
vt 0.683508 0.870386
vt 0.744077 0.863893
vt 0.807366 0.931543
vt 0.754132 0.925375
vt 0.744077 0.875258
vt 0.808446 0.867979
vt 0.744077 0.825978
vt 0.791401 0.808825
vt 0.683508 0.808824
vt 0.732250 0.813832
vt 0.177564 0.459069
vt 0.077108 0.461047
vt 0.007574 0.461499
vt 0.423826 0.145220
vt 0.325159 0.145215
vt 0.248740 0.144676
vt 0.968094 0.000709
vt 1.000000 -0.000000
vt 0.998268 0.103699
vt 0.981981 0.102326
vt 0.989405 0.506686
vt 0.957423 0.503249
vt 0.972693 0.400888
vt 0.989405 0.403578
vt 0.977296 0.349862
vt 0.983887 0.334662
vt 1.000000 0.174541
vt 0.992339 0.166613
vt 0.992718 0.201857
vt 0.988281 0.189321
vt 0.971617 0.344818
vt 0.982368 0.305464
vt 0.964218 0.345416
vt 0.969088 0.321124
vt 0.974695 0.191201
vt 0.976542 0.180476
vt 0.931466 0.126003
vt 0.947575 0.115836
vt 0.940500 0.395013
vt 0.927178 0.384764
vt 0.903028 0.488063
vt 0.879135 0.477847
vt 0.876411 0.035363
vt 0.904628 0.018541
vt 0.965476 0.108678
vt 0.936616 0.006909
vt 0.956041 0.397349
vt 0.927897 0.496071
s 1
usemtl Material
f 1/1/1 58/2/58 141/3/141 57/4/57
f 58/5/58 2/6/2 59/7/59 141/8/141
f 141/8/141 59/7/59 4/9/4 60/10/60
f 57/4/57 141/3/141 60/11/60 3/12/3
f 7/13/7 63/14/63 142/15/142 64/16/64
f 63/17/63 8/18/8 65/19/65 142/20/142
f 142/20/142 65/19/65 6/21/6 66/22/66
f 64/16/64 142/15/142 66/23/66 5/24/5
f 3/12/3 61/25/61 143/26/143 57/4/57
f 61/25/61 7/13/7 64/16/64 143/26/143
f 143/26/143 64/16/64 5/24/5 67/27/67
f 57/4/57 143/26/143 67/27/67 1/1/1
f 8/18/8 62/28/62 144/29/144 65/19/65
f 62/28/62 4/9/4 59/7/59 144/29/144
f 144/29/144 59/7/59 2/6/2 68/30/68
f 65/19/65 144/29/144 68/30/68 6/21/6
f 9/31/9 70/32/70 145/33/145 69/34/69
f 70/35/70 10/36/10 71/37/71 145/38/145
f 145/38/145 71/37/71 12/39/12 72/40/72
f 69/34/69 145/33/145 72/41/72 11/42/11
f 15/43/15 75/44/75 146/45/146 76/46/76
f 75/47/75 16/48/16 77/49/77 146/50/146
f 146/50/146 77/49/77 14/51/14 78/52/78
f 76/46/76 146/45/146 78/53/78 13/54/13
f 11/42/11 73/55/73 147/56/147 69/34/69
f 73/55/73 15/43/15 76/46/76 147/56/147
f 147/56/147 76/46/76 13/54/13 79/57/79
f 69/34/69 147/56/147 79/57/79 9/31/9
f 16/48/16 74/58/74 148/59/148 77/49/77
f 74/58/74 12/39/12 71/37/71 148/59/148
f 148/59/148 71/37/71 10/36/10 80/60/80
f 77/49/77 148/59/148 80/60/80 14/51/14
f 17/61/17 82/62/82 149/63/149 81/64/81
f 82/65/82 18/66/18 83/67/83 149/68/149
f 149/68/149 83/67/83 20/69/20 84/70/84
f 81/64/81 149/63/149 84/71/84 19/72/19
f 23/73/23 87/74/87 150/75/150 88/76/88
f 87/77/87 24/78/24 89/79/89 150/80/150
f 150/80/150 89/79/89 22/81/22 90/82/90
f 88/76/88 150/75/150 90/83/90 21/84/21
f 19/72/19 85/85/85 151/86/151 81/64/81
f 85/85/85 23/73/23 88/76/88 151/86/151
f 151/86/151 88/76/88 21/84/21 91/87/91
f 81/64/81 151/86/151 91/87/91 17/61/17
f 24/78/24 86/88/86 152/89/152 89/79/89
f 86/88/86 20/69/20 83/67/83 152/89/152
f 152/89/152 83/67/83 18/66/18 92/90/92
f 89/79/89 152/89/152 92/90/92 22/81/22
f 25/91/25 94/92/94 153/93/153 93/94/93
f 94/95/94 26/96/26 95/97/95 153/98/153
f 153/98/153 95/97/95 28/99/28 96/100/96
f 93/94/93 153/93/153 96/101/96 27/102/27
f 31/103/31 99/104/99 154/105/154 100/106/100
f 99/107/99 32/108/32 101/109/101 154/110/154
f 154/110/154 101/109/101 30/111/30 102/112/102
f 100/106/100 154/105/154 102/113/102 29/114/29
f 27/102/27 97/115/97 155/116/155 93/94/93
f 97/115/97 31/103/31 100/106/100 155/116/155
f 155/116/155 100/106/100 29/114/29 103/117/103
f 93/94/93 155/116/155 103/117/103 25/91/25
f 32/108/32 98/118/98 156/119/156 101/109/101
f 98/118/98 28/99/28 95/97/95 156/119/156
f 156/119/156 95/97/95 26/96/26 104/120/104
f 101/109/101 156/119/156 104/120/104 30/111/30
f 33/121/33 106/122/106 157/123/157 105/124/105
f 106/125/106 34/126/34 107/127/107 157/128/157
f 157/128/157 107/127/107 36/129/36 108/130/108
f 105/124/105 157/123/157 108/131/108 35/132/35
f 39/133/39 111/134/111 158/135/158 112/136/112
f 111/137/111 40/138/40 113/139/113 158/140/158
f 158/140/158 113/139/113 38/141/38 114/142/114
f 112/136/112 158/135/158 114/143/114 37/144/37
f 35/132/35 109/145/109 159/146/159 105/124/105
f 109/145/109 39/133/39 112/136/112 159/146/159
f 159/146/159 112/136/112 37/144/37 115/147/115
f 105/124/105 159/146/159 115/147/115 33/121/33
f 40/138/40 110/148/110 160/149/160 113/139/113
f 110/148/110 36/129/36 107/127/107 160/149/160
f 160/149/160 107/127/107 34/126/34 116/150/116
f 113/139/113 160/149/160 116/150/116 38/141/38
f 41/151/41 118/152/118 161/153/161 117/154/117
f 118/155/118 42/156/42 119/157/119 161/158/161
f 161/158/161 119/157/119 44/159/44 120/160/120
f 117/154/117 161/153/161 120/161/120 43/162/43
f 47/163/47 123/164/123 162/165/162 124/166/124
f 123/167/123 48/168/48 125/169/125 162/170/162
f 162/170/162 125/169/125 46/171/46 126/172/126
f 124/166/124 162/165/162 126/173/126 45/174/45
f 45/175/45 126/176/126 163/177/163 127/178/127
f 126/179/126 46/180/46 128/181/128 163/182/163
f 163/182/163 128/181/128 42/183/42 118/184/118
f 127/178/127 163/177/163 118/185/118 41/186/41
f 43/162/43 121/187/121 164/188/164 117/154/117
f 121/187/121 47/163/47 124/166/124 164/188/164
f 164/188/164 124/166/124 45/174/45 127/189/127
f 117/154/117 164/188/164 127/189/127 41/151/41
f 48/168/48 122/190/122 165/191/165 125/169/125
f 122/190/122 44/159/44 119/157/119 165/191/165
f 165/191/165 119/157/119 42/156/42 128/192/128
f 125/169/125 165/191/165 128/192/128 46/171/46
f 49/193/49 130/194/130 166/195/166 129/196/129
f 130/197/130 50/198/50 131/199/131 166/200/166
f 166/200/166 131/199/131 52/201/52 132/202/132
f 129/196/129 166/195/166 132/203/132 51/204/51
f 51/204/51 132/203/132 167/205/167 133/206/133
f 132/202/132 52/201/52 134/207/134 167/208/167
f 167/208/167 134/207/134 56/209/56 135/210/135
f 133/206/133 167/205/167 135/211/135 55/212/55
f 55/212/55 135/211/135 168/213/168 136/214/136
f 135/210/135 56/209/56 137/215/137 168/216/168
f 168/216/168 137/215/137 54/217/54 138/218/138
f 136/214/136 168/213/168 138/219/138 53/220/53
f 51/204/51 133/206/133 169/221/169 129/196/129
f 133/206/133 55/212/55 136/214/136 169/221/169
f 169/221/169 136/214/136 53/220/53 139/222/139
f 129/196/129 169/221/169 139/222/139 49/193/49
f 56/209/56 134/207/134 170/223/170 137/215/137
f 134/207/134 52/201/52 131/199/131 170/223/170
f 170/223/170 131/199/131 50/198/50 140/224/140
f 137/215/137 170/223/170 140/224/140 54/217/54
