# Blender 4.3.2
# www.blender.org
mtllib Stalagmites_2.mtl
o Stalagmites_002
v 0.310323 3.026875 -0.449585
v 0.379094 3.026875 -0.401455
v 0.310352 2.913410 -0.456859
v 0.378051 2.913410 -0.401457
v 0.267325 3.026875 -0.395462
v 0.317709 3.026875 -0.340395
v 0.265107 2.913410 -0.395189
v 0.316734 2.913410 -0.348304
v 0.310352 2.913410 -0.456859
v 0.378051 2.913410 -0.401457
v 0.305411 2.799945 -0.455305
v 0.349170 2.799945 -0.404927
v 0.265107 2.913410 -0.395189
v 0.316734 2.913410 -0.348304
v 0.250667 2.799945 -0.398631
v 0.312211 2.799945 -0.349418
v 0.305411 2.799945 -0.455305
v 0.349170 2.799945 -0.404927
v 0.313178 2.686481 -0.443951
v 0.360282 2.686481 -0.398578
v 0.250667 2.799945 -0.398631
v 0.312211 2.799945 -0.349418
v 0.264985 2.686481 -0.392541
v 0.319474 2.686481 -0.345511
v 0.313178 2.686481 -0.443951
v 0.360282 2.686481 -0.398578
v 0.309166 2.573016 -0.438423
v 0.346712 2.573016 -0.402139
v 0.264985 2.686481 -0.392541
v 0.319474 2.686481 -0.345511
v 0.268752 2.573016 -0.397086
v 0.314225 2.573016 -0.359790
v 0.309166 2.573016 -0.438423
v 0.346712 2.573016 -0.402139
v 0.307372 2.459551 -0.426506
v 0.334488 2.459551 -0.403894
v 0.268752 2.573016 -0.397086
v 0.314225 2.573016 -0.359790
v 0.282494 2.459551 -0.400556
v 0.310187 2.459551 -0.382710
v 0.308129 3.110152 -0.442091
v 0.350211 3.108589 -0.402905
v 0.310256 3.026507 -0.449657
v 0.379109 3.026991 -0.401437
v 0.273639 3.107528 -0.397816
v 0.313440 3.110425 -0.358771
v 0.267201 3.026304 -0.395552
v 0.317683 3.026726 -0.340412
v 0.307370 2.459413 -0.426485
v 0.334433 2.459283 -0.403897
v 0.316472 2.374097 -0.401854
v 0.321960 2.379368 -0.396473
v 0.282551 2.459196 -0.400568
v 0.310199 2.459881 -0.382656
v 0.310685 2.368923 -0.394169
v 0.316395 2.379037 -0.389967
v 0.305754 2.970143 -0.459483
v 0.356352 3.026875 -0.441417
v 0.385782 2.970143 -0.405730
v 0.349132 2.913410 -0.435363
v 0.267501 2.913410 -0.438681
v 0.353205 2.913410 -0.363320
v 0.286234 2.913410 -0.365825
v 0.267296 2.970143 -0.399522
v 0.312883 2.970143 -0.346919
v 0.281014 3.026875 -0.357803
v 0.279921 3.026875 -0.427760
v 0.354882 3.026875 -0.361846
v 0.312087 2.856678 -0.448503
v 0.349132 2.913410 -0.435363
v 0.369009 2.856678 -0.400039
v 0.335322 2.799945 -0.432519
v 0.263753 2.799945 -0.441977
v 0.345275 2.799945 -0.370294
v 0.275331 2.799945 -0.364354
v 0.259942 2.856678 -0.393095
v 0.318664 2.856678 -0.347683
v 0.286234 2.913410 -0.365825
v 0.267501 2.913410 -0.438681
v 0.353205 2.913410 -0.363320
v 0.308709 2.743213 -0.453591
v 0.335322 2.799945 -0.432519
v 0.361652 2.743213 -0.402632
v 0.340501 2.686481 -0.423450
v 0.278192 2.686481 -0.429281
v 0.349240 2.686481 -0.366807
v 0.283355 2.686481 -0.359026
v 0.258779 2.743213 -0.395968
v 0.315143 2.743213 -0.351883
v 0.275331 2.799945 -0.364354
v 0.263753 2.799945 -0.441977
v 0.345275 2.799945 -0.370294
v 0.306385 2.629748 -0.441158
v 0.340501 2.686481 -0.423450
v 0.341336 2.629748 -0.404374
v 0.337813 2.573016 -0.429363
v 0.282402 2.573016 -0.425578
v 0.337759 2.573016 -0.376903
v 0.285917 2.573016 -0.370351
v 0.259435 2.629748 -0.399130
v 0.311506 2.629748 -0.361394
v 0.283355 2.686481 -0.359026
v 0.278192 2.686481 -0.429281
v 0.349240 2.686481 -0.366807
v 0.314562 2.516284 -0.428842
v 0.337813 2.573016 -0.429363
v 0.348116 2.516284 -0.397420
v 0.325096 2.459551 -0.420650
v 0.290398 2.459551 -0.418547
v 0.324906 2.459551 -0.388204
v 0.295032 2.459551 -0.386453
v 0.283270 2.516284 -0.393264
v 0.318650 2.516284 -0.365423
v 0.285917 2.573016 -0.370351
v 0.282402 2.573016 -0.425578
v 0.337759 2.573016 -0.376903
v 0.312658 3.079435 -0.450163
v 0.332468 3.114077 -0.426402
v 0.364735 3.078357 -0.398666
v 0.356355 3.026907 -0.441413
v 0.279795 3.026260 -0.427870
v 0.354867 3.026778 -0.361859
v 0.280961 3.026587 -0.357835
v 0.268022 3.078408 -0.392471
v 0.319600 3.080239 -0.337435
v 0.286229 3.116245 -0.374344
v 0.283824 3.115693 -0.424328
v 0.336661 3.115261 -0.377868
v 0.309884 2.406810 -0.413890
v 0.325067 2.459337 -0.420627
v 0.324533 2.406375 -0.401496
v 0.320606 2.370798 -0.398479
v 0.314388 2.361955 -0.397453
v 0.319615 2.377617 -0.392856
v 0.314605 2.365958 -0.390614
v 0.295189 2.404521 -0.399360
v 0.311303 2.408148 -0.389221
v 0.295024 2.459670 -0.386437
v 0.290423 2.459319 -0.418526
v 0.324919 2.459648 -0.388192
v 0.355906 2.970143 -0.449064
v 0.279969 2.970143 -0.367698
v 0.274562 2.970143 -0.432472
v 0.358170 2.970143 -0.358955
v 0.347370 2.856678 -0.434360
v 0.280255 2.856678 -0.358363
v 0.272970 2.856678 -0.433872
v 0.353572 2.856678 -0.362998
v 0.344900 2.743213 -0.435996
v 0.280654 2.743213 -0.362990
v 0.268729 2.743213 -0.437601
v 0.342855 2.743213 -0.372421
v 0.334103 2.629748 -0.431013
v 0.279461 2.629748 -0.368895
v 0.277810 2.629748 -0.429616
v 0.336868 2.629748 -0.377685
v 0.339044 2.516284 -0.420987
v 0.298704 2.516284 -0.374988
v 0.291183 2.516284 -0.417858
v 0.340243 2.516284 -0.374718
v 0.347942 3.079409 -0.433298
v 0.278245 3.080526 -0.355377
v 0.309385 3.127063 -0.401852
v 0.280379 3.079365 -0.427358
v 0.357446 3.080270 -0.359591
v 0.318872 2.406609 -0.409855
v 0.318074 2.356324 -0.394211
v 0.301870 2.405402 -0.390174
v 0.300064 2.404668 -0.410048
v 0.319699 2.406865 -0.392783
vn -0.2254 0.1620 -0.9607
vn 0.9950 0.0996 0.0111
vn -0.0834 -0.0611 -0.9946
vn 0.9846 -0.1731 -0.0250
vn -0.9988 0.0155 0.0465
vn -0.0377 -0.0739 0.9966
vn -0.9792 0.0394 0.1992
vn -0.0966 -0.0516 0.9940
vn 0.0260 -0.1122 -0.9933
vn 0.9932 -0.0882 -0.0764
vn 0.0622 0.0767 -0.9951
vn 0.9537 -0.2586 -0.1533
vn -0.9796 0.0609 0.1917
vn -0.0000 0.0520 0.9986
vn -0.9845 0.1361 0.1104
vn 0.0557 -0.0857 0.9948
vn 0.0869 -0.0040 -0.9962
vn 0.9866 0.1429 -0.0784
vn 0.0975 -0.1968 -0.9756
vn 0.9991 -0.0213 -0.0372
vn -0.9817 -0.1131 0.1530
vn 0.1097 -0.0365 0.9933
vn -0.9841 -0.1034 0.1443
vn 0.1596 0.1170 0.9802
vn 0.0850 -0.0095 -0.9963
vn 0.9675 -0.2388 -0.0831
vn -0.0337 -0.0522 -0.9981
vn 0.9978 0.0657 -0.0133
vn -0.9957 0.0368 0.0845
vn 0.1639 -0.2607 0.9514
vn -0.9884 -0.1420 0.0532
vn 0.1638 0.0081 0.9865
vn -0.0823 -0.1730 -0.9815
vn 0.9997 0.0174 -0.0167
vn -0.0888 -0.0305 -0.9956
vn 0.9643 -0.2636 -0.0269
vn -0.9666 -0.2381 0.0952
vn 0.0463 -0.0799 0.9957
vn -0.9897 -0.0197 0.1418
vn -0.0173 -0.2686 0.9631
vn -0.0730 0.5749 -0.8150
vn 0.7395 0.6630 -0.1162
vn -0.1735 0.0557 -0.9833
vn 0.9818 0.1801 -0.0602
vn -0.8612 0.5079 -0.0201
vn 0.0295 0.7364 0.6759
vn -0.9994 -0.0035 -0.0337
vn 0.0411 -0.0631 0.9972
vn -0.0285 -0.2328 -0.9721
vn 0.9820 -0.1884 -0.0113
vn 0.1336 -0.3259 -0.9359
vn 0.9949 -0.0963 0.0305
vn -0.9685 -0.2161 0.1236
vn 0.0901 -0.1148 0.9893
vn -0.9044 -0.3943 0.1633
vn 0.2600 -0.0316 0.9651
vn -0.1814 0.0539 -0.9819
vn 0.5742 0.1319 -0.8080
vn 0.9981 -0.0359 -0.0497
vn 0.5885 -0.1751 -0.7893
vn -0.8351 0.0669 -0.5460
vn 0.6149 -0.0776 0.7848
vn -0.7100 -0.0256 0.7038
vn -0.9946 0.0313 0.0993
vn -0.1034 -0.0645 0.9926
vn -0.7347 -0.0752 0.6742
vn -0.8223 0.1158 -0.5572
vn 0.6493 0.0179 0.7603
vn 0.0809 -0.0254 -0.9964
vn 0.6361 -0.0840 -0.7670
vn 0.9811 -0.1740 -0.0851
vn 0.6858 -0.1341 -0.7153
vn -0.7058 0.1984 -0.6801
vn 0.7656 -0.2127 0.6071
vn -0.6326 0.0121 0.7744
vn -0.9787 0.0952 0.1821
vn 0.0592 -0.0202 0.9980
vn -0.6356 0.1083 0.7644
vn -0.7702 -0.0827 -0.6324
vn 0.6740 -0.0236 0.7383
vn 0.0859 -0.0969 -0.9916
vn 0.7228 0.1274 -0.6793
vn 0.9963 0.0559 -0.0650
vn 0.7019 -0.1453 -0.6973
vn -0.7273 -0.1931 -0.6586
vn 0.7626 0.1117 0.6372
vn -0.6176 0.0193 0.7862
vn -0.9827 -0.1100 0.1494
vn 0.1343 0.0399 0.9901
vn -0.6219 -0.0593 0.7809
vn -0.7305 -0.1136 -0.6734
vn 0.7918 0.0277 0.6102
vn -0.0123 -0.0311 -0.9994
vn 0.7317 -0.0905 -0.6756
vn 0.9933 -0.0818 -0.0818
vn 0.7314 0.0290 -0.6813
vn -0.6717 -0.1123 -0.7323
vn 0.8170 0.0509 0.5743
vn -0.5853 -0.0700 0.8078
vn -0.9985 -0.0485 0.0254
vn 0.1325 -0.1297 0.9827
vn -0.5881 -0.1087 0.8014
vn -0.6890 0.0414 -0.7236
vn 0.7746 -0.3050 0.5540
vn -0.0430 -0.1057 -0.9935
vn 0.6726 -0.0869 -0.7348
vn 0.9925 -0.1211 0.0182
vn 0.6258 -0.1440 -0.7665
vn -0.7357 0.0292 -0.6767
vn 0.6488 -0.3238 0.6886
vn -0.5858 -0.1363 0.7989
vn -0.9741 -0.1379 0.1790
vn 0.0635 -0.1744 0.9826
vn -0.6246 -0.1762 0.7608
vn -0.7105 -0.2198 -0.6684
vn 0.7717 0.0304 0.6353
vn -0.0905 0.1609 -0.9828
vn 0.4542 0.7434 -0.4909
vn 0.9423 0.3285 -0.0638
vn 0.6311 0.1759 -0.7555
vn -0.7937 0.0213 -0.6079
vn 0.7558 0.0118 0.6547
vn -0.7467 -0.0448 0.6637
vn -0.9942 0.1078 0.0017
vn 0.0714 0.2678 0.9608
vn -0.4856 0.7702 0.4135
vn -0.5792 0.6721 -0.4613
vn 0.4622 0.8239 0.3279
vn 0.0236 -0.2716 -0.9621
vn 0.6167 -0.2151 -0.7573
vn 0.9906 -0.1359 -0.0123
vn 0.8592 -0.2890 -0.4222
vn -0.4778 -0.6716 -0.5663
vn 0.7698 -0.0692 0.6345
vn -0.2081 -0.3789 0.9017
vn -0.9480 -0.2932 0.1242
vn 0.1335 -0.0699 0.9886
vn -0.5049 -0.1382 0.8520
vn -0.6804 -0.2338 -0.6945
vn 0.6394 -0.1298 0.7579
vn 0.5676 -0.0212 -0.8230
vn -0.7511 -0.0468 0.6586
vn -0.8307 0.0921 -0.5490
vn 0.6376 -0.0295 0.7698
vn 0.6726 -0.1150 -0.7310
vn -0.6155 0.0568 0.7861
vn -0.7443 0.0619 -0.6650
vn 0.7229 -0.1159 0.6812
vn 0.7175 -0.0086 -0.6965
vn -0.6203 -0.0215 0.7841
vn -0.7295 -0.1521 -0.6668
vn 0.7785 0.0705 0.6236
vn 0.7022 -0.0284 -0.7114
vn -0.6238 -0.0835 0.7771
vn -0.6840 -0.0357 -0.7286
vn 0.8118 -0.1358 0.5680
vn 0.7002 -0.1168 -0.7043
vn -0.5729 -0.1600 0.8039
vn -0.7275 -0.0994 -0.6789
vn 0.7291 -0.1438 0.6691
vn 0.6494 0.2747 -0.7091
vn -0.7157 0.2027 0.6683
vn -0.0079 0.9997 -0.0212
vn -0.7932 0.0744 -0.6044
vn 0.7399 0.3033 0.6004
vn 0.6378 -0.2116 -0.7406
vn 0.2285 -0.9618 0.1504
vn -0.4974 -0.1500 0.8544
vn -0.6392 -0.3267 -0.6962
vn 0.6748 -0.0541 0.7360
vt 0.232689 0.394406
vt 0.224336 0.316074
vt 0.333885 0.307401
vt 0.340374 0.391438
vt 0.000000 0.302870
vt 0.002838 0.223200
vt 0.109927 0.230314
vt 0.111459 0.316857
vt 0.216940 0.220368
vt 0.224335 0.297235
vt 0.445987 0.305464
vt 0.446472 0.380171
vt 0.447228 0.530672
vt 0.442346 0.591298
vt 0.334299 0.573862
vt 0.338678 0.516264
vt 0.222695 0.017280
vt 0.219237 0.076331
vt 0.110113 0.065630
vt 0.114189 0.000000
vt -0.000000 0.071693
vt 0.003640 0.003452
vt 0.224336 0.582353
vt 0.229110 0.515074
vt 0.452441 0.457855
vt 0.342446 0.459504
vt 0.232982 0.457037
vt 0.216796 0.143157
vt 0.109118 0.143026
vt 0.001765 0.144461
vt 0.452441 0.376142
vt 0.452821 0.305464
vt 0.557572 0.305464
vt 0.562370 0.369838
vt 0.671378 0.585613
vt 0.683508 0.660800
vt 0.575245 0.668927
vt 0.562694 0.602839
vt 0.462613 0.669441
vt 0.452441 0.618287
vt 0.664571 0.308631
vt 0.673028 0.368272
vt 0.681045 0.511151
vt 0.675926 0.579511
vt 0.569854 0.585613
vt 0.571979 0.518469
vt 0.452441 0.861805
vt 0.460005 0.794885
vt 0.569088 0.796156
vt 0.562835 0.862678
vt 0.677326 0.805279
vt 0.673932 0.864844
vt 0.463398 0.579699
vt 0.463761 0.520849
vt 0.681245 0.438221
vt 0.567987 0.443538
vt 0.456050 0.451082
vt 0.465663 0.728769
vt 0.573995 0.733876
vt 0.681002 0.738469
vt 0.428870 0.063608
vt 0.435514 0.000000
vt 0.546463 0.001714
vt 0.536763 0.067823
vt 0.224336 0.830832
vt 0.229664 0.779814
vt 0.337607 0.779132
vt 0.332864 0.840181
vt 0.444069 0.775835
vt 0.443227 0.829861
vt 0.656379 0.016582
vt 0.645266 0.072803
vt 0.646483 0.202174
vt 0.656379 0.265756
vt 0.547401 0.274581
vt 0.537208 0.208789
vt 0.440552 0.596989
vt 0.446127 0.659997
vt 0.335786 0.660299
vt 0.333063 0.598854
vt 0.225303 0.658013
vt 0.224336 0.591298
vt 0.438253 0.284365
vt 0.427307 0.214128
vt 0.641390 0.136837
vt 0.531726 0.138055
vt 0.423826 0.137450
vt 0.446847 0.720432
vt 0.336280 0.719567
vt 0.227001 0.722558
vt 0.000000 0.644339
vt 0.002447 0.586419
vt 0.111631 0.607435
vt 0.108962 0.657037
vt 0.656379 0.015143
vt 0.705519 0.002407
vt 0.708239 0.117043
vt 0.661412 0.122015
vt 0.714171 0.226726
vt 0.668473 0.227178
vt 0.221336 0.608554
vt 0.217661 0.659220
vt 0.215502 0.763110
vt 0.221216 0.816847
vt 0.110764 0.824721
vt 0.107733 0.764865
vt 0.851534 0.227178
vt 0.803709 0.226109
vt 0.809460 0.116664
vt 0.865187 0.123298
vt 0.817460 0.003472
vt 0.876411 0.018154
vt 0.000752 0.841464
vt 0.001404 0.776660
vt 0.215467 0.709354
vt 0.107945 0.707896
vt 0.000000 0.708937
vt 0.757123 0.225903
vt 0.756030 0.114762
vt 0.759200 -0.000000
vt 0.831972 0.589221
vt 0.879970 0.596996
vt 0.869922 0.703359
vt 0.826904 0.699075
vt 0.681245 0.307852
vt 0.730304 0.306522
vt 0.740453 0.413148
vt 0.698545 0.418423
vt 0.747942 0.523371
vt 0.715785 0.531577
vt 0.843210 0.808824
vt 0.812745 0.807589
vt 0.750300 0.807725
vt 0.719854 0.808824
vt 0.696752 0.703123
vt 0.737053 0.698303
vt 0.833040 0.531577
vt 0.807019 0.524642
vt 0.815339 0.412322
vt 0.851646 0.419472
vt 0.827822 0.305464
vt 0.879135 0.310038
vt 0.683508 0.595722
vt 0.733321 0.586312
vt 0.782242 0.807600
vt 0.782098 0.697482
vt 0.784229 0.585613
vt 0.779921 0.521713
vt 0.778233 0.410917
vt 0.777034 0.305614
vt 0.017227 0.409883
vt -0.000000 0.362025
vt 0.069044 0.332954
vt 0.075682 0.397420
vt 0.224336 0.241941
vt 0.256042 0.197946
vt 0.321516 0.206112
vt 0.297381 0.267994
vt 0.422352 0.226935
vt 0.398806 0.305464
vt 0.170777 0.316857
vt 0.175047 0.395738
vt 0.177982 0.517835
vt 0.175930 0.586419
vt 0.070987 0.585927
vt 0.078417 0.521712
vt 0.407938 0.000000
vt 0.417976 0.068722
vt 0.323553 0.083590
vt 0.303378 0.013269
vt 0.256050 0.089726
vt 0.224335 0.040404
vt 0.000000 0.553307
vt 0.022365 0.510247
vt 0.739506 0.913669
vt 0.695948 0.932730
vt 0.683508 0.870386
vt 0.744077 0.863893
vt 0.807366 0.931543
vt 0.754132 0.925375
vt 0.744077 0.875258
vt 0.808446 0.867979
vt 0.744077 0.825978
vt 0.791401 0.808825
vt 0.683508 0.808824
vt 0.732250 0.813832
vt 0.177564 0.459069
vt 0.077108 0.461047
vt 0.007574 0.461499
vt 0.423826 0.145220
vt 0.325159 0.145215
vt 0.248740 0.144676
vt 0.968094 0.000709
vt 1.000000 -0.000000
vt 0.998268 0.103699
vt 0.981981 0.102326
vt 0.989405 0.506686
vt 0.957423 0.503249
vt 0.972693 0.400888
vt 0.989405 0.403578
vt 0.977296 0.349862
vt 0.983887 0.334662
vt 1.000000 0.174541
vt 0.992339 0.166613
vt 0.992718 0.201857
vt 0.988281 0.189321
vt 0.971617 0.344818
vt 0.982368 0.305464
vt 0.964218 0.345416
vt 0.969088 0.321124
vt 0.974695 0.191201
vt 0.976542 0.180476
vt 0.931466 0.126003
vt 0.947575 0.115836
vt 0.940500 0.395013
vt 0.927178 0.384764
vt 0.903028 0.488063
vt 0.879135 0.477847
vt 0.876411 0.035363
vt 0.904628 0.018541
vt 0.965476 0.108678
vt 0.936616 0.006909
vt 0.956041 0.397349
vt 0.927897 0.496071
s 1
usemtl Material
f 1/1/1 58/2/58 141/3/141 57/4/57
f 58/5/58 2/6/2 59/7/59 141/8/141
f 141/8/141 59/7/59 4/9/4 60/10/60
f 57/4/57 141/3/141 60/11/60 3/12/3
f 7/13/7 63/14/63 142/15/142 64/16/64
f 63/17/63 8/18/8 65/19/65 142/20/142
f 142/20/142 65/19/65 6/21/6 66/22/66
f 64/16/64 142/15/142 66/23/66 5/24/5
f 3/12/3 61/25/61 143/26/143 57/4/57
f 61/25/61 7/13/7 64/16/64 143/26/143
f 143/26/143 64/16/64 5/24/5 67/27/67
f 57/4/57 143/26/143 67/27/67 1/1/1
f 8/18/8 62/28/62 144/29/144 65/19/65
f 62/28/62 4/9/4 59/7/59 144/29/144
f 144/29/144 59/7/59 2/6/2 68/30/68
f 65/19/65 144/29/144 68/30/68 6/21/6
f 9/31/9 70/32/70 145/33/145 69/34/69
f 70/35/70 10/36/10 71/37/71 145/38/145
f 145/38/145 71/37/71 12/39/12 72/40/72
f 69/34/69 145/33/145 72/41/72 11/42/11
f 15/43/15 75/44/75 146/45/146 76/46/76
f 75/47/75 16/48/16 77/49/77 146/50/146
f 146/50/146 77/49/77 14/51/14 78/52/78
f 76/46/76 146/45/146 78/53/78 13/54/13
f 11/42/11 73/55/73 147/56/147 69/34/69
f 73/55/73 15/43/15 76/46/76 147/56/147
f 147/56/147 76/46/76 13/54/13 79/57/79
f 69/34/69 147/56/147 79/57/79 9/31/9
f 16/48/16 74/58/74 148/59/148 77/49/77
f 74/58/74 12/39/12 71/37/71 148/59/148
f 148/59/148 71/37/71 10/36/10 80/60/80
f 77/49/77 148/59/148 80/60/80 14/51/14
f 17/61/17 82/62/82 149/63/149 81/64/81
f 82/65/82 18/66/18 83/67/83 149/68/149
f 149/68/149 83/67/83 20/69/20 84/70/84
f 81/64/81 149/63/149 84/71/84 19/72/19
f 23/73/23 87/74/87 150/75/150 88/76/88
f 87/77/87 24/78/24 89/79/89 150/80/150
f 150/80/150 89/79/89 22/81/22 90/82/90
f 88/76/88 150/75/150 90/83/90 21/84/21
f 19/72/19 85/85/85 151/86/151 81/64/81
f 85/85/85 23/73/23 88/76/88 151/86/151
f 151/86/151 88/76/88 21/84/21 91/87/91
f 81/64/81 151/86/151 91/87/91 17/61/17
f 24/78/24 86/88/86 152/89/152 89/79/89
f 86/88/86 20/69/20 83/67/83 152/89/152
f 152/89/152 83/67/83 18/66/18 92/90/92
f 89/79/89 152/89/152 92/90/92 22/81/22
f 25/91/25 94/92/94 153/93/153 93/94/93
f 94/95/94 26/96/26 95/97/95 153/98/153
f 153/98/153 95/97/95 28/99/28 96/100/96
f 93/94/93 153/93/153 96/101/96 27/102/27
f 31/103/31 99/104/99 154/105/154 100/106/100
f 99/107/99 32/108/32 101/109/101 154/110/154
f 154/110/154 101/109/101 30/111/30 102/112/102
f 100/106/100 154/105/154 102/113/102 29/114/29
f 27/102/27 97/115/97 155/116/155 93/94/93
f 97/115/97 31/103/31 100/106/100 155/116/155
f 155/116/155 100/106/100 29/114/29 103/117/103
f 93/94/93 155/116/155 103/117/103 25/91/25
f 32/108/32 98/118/98 156/119/156 101/109/101
f 98/118/98 28/99/28 95/97/95 156/119/156
f 156/119/156 95/97/95 26/96/26 104/120/104
f 101/109/101 156/119/156 104/120/104 30/111/30
f 33/121/33 106/122/106 157/123/157 105/124/105
f 106/125/106 34/126/34 107/127/107 157/128/157
f 157/128/157 107/127/107 36/129/36 108/130/108
f 105/124/105 157/123/157 108/131/108 35/132/35
f 39/133/39 111/134/111 158/135/158 112/136/112
f 111/137/111 40/138/40 113/139/113 158/140/158
f 158/140/158 113/139/113 38/141/38 114/142/114
f 112/136/112 158/135/158 114/143/114 37/144/37
f 35/132/35 109/145/109 159/146/159 105/124/105
f 109/145/109 39/133/39 112/136/112 159/146/159
f 159/146/159 112/136/112 37/144/37 115/147/115
f 105/124/105 159/146/159 115/147/115 33/121/33
f 40/138/40 110/148/110 160/149/160 113/139/113
f 110/148/110 36/129/36 107/127/107 160/149/160
f 160/149/160 107/127/107 34/126/34 116/150/116
f 113/139/113 160/149/160 116/150/116 38/141/38
f 41/151/41 118/152/118 161/153/161 117/154/117
f 118/155/118 42/156/42 119/157/119 161/158/161
f 161/158/161 119/157/119 44/159/44 120/160/120
f 117/154/117 161/153/161 120/161/120 43/162/43
f 47/163/47 123/164/123 162/165/162 124/166/124
f 123/167/123 48/168/48 125/169/125 162/170/162
f 162/170/162 125/169/125 46/171/46 126/172/126
f 124/166/124 162/165/162 126/173/126 45/174/45
f 45/175/45 126/176/126 163/177/163 127/178/127
f 126/179/126 46/180/46 128/181/128 163/182/163
f 163/182/163 128/181/128 42/183/42 118/184/118
f 127/178/127 163/177/163 118/185/118 41/186/41
f 43/162/43 121/187/121 164/188/164 117/154/117
f 121/187/121 47/163/47 124/166/124 164/188/164
f 164/188/164 124/166/124 45/174/45 127/189/127
f 117/154/117 164/188/164 127/189/127 41/151/41
f 48/168/48 122/190/122 165/191/165 125/169/125
f 122/190/122 44/159/44 119/157/119 165/191/165
f 165/191/165 119/157/119 42/156/42 128/192/128
f 125/169/125 165/191/165 128/192/128 46/171/46
f 49/193/49 130/194/130 166/195/166 129/196/129
f 130/197/130 50/198/50 131/199/131 166/200/166
f 166/200/166 131/199/131 52/201/52 132/202/132
f 129/196/129 166/195/166 132/203/132 51/204/51
f 51/204/51 132/203/132 167/205/167 133/206/133
f 132/202/132 52/201/52 134/207/134 167/208/167
f 167/208/167 134/207/134 56/209/56 135/210/135
f 133/206/133 167/205/167 135/211/135 55/212/55
f 55/212/55 135/211/135 168/213/168 136/214/136
f 135/210/135 56/209/56 137/215/137 168/216/168
f 168/216/168 137/215/137 54/217/54 138/218/138
f 136/214/136 168/213/168 138/219/138 53/220/53
f 51/204/51 133/206/133 169/221/169 129/196/129
f 133/206/133 55/212/55 136/214/136 169/221/169
f 169/221/169 136/214/136 53/220/53 139/222/139
f 129/196/129 169/221/169 139/222/139 49/193/49
f 56/209/56 134/207/134 170/223/170 137/215/137
f 134/207/134 52/201/52 131/199/131 170/223/170
f 170/223/170 131/199/131 50/198/50 140/224/140
f 137/215/137 170/223/170 140/224/140 54/217/54
