# Blender 4.3.2
# www.blender.org
mtllib Foot_1.mtl
o Foot_1
v 0.459374 0.450194 -2.923023
v 0.434575 0.449292 -2.928198
v 0.464628 0.445836 -2.947436
v 0.439829 0.444934 -2.952611
v 0.356013 0.017554 -2.868896
v 0.343680 0.005678 -2.882637
v 0.331934 0.022587 -2.875019
v 0.343680 0.005678 -2.882637
v 0.343680 0.005678 -2.882637
v 0.361317 0.013234 -2.893305
v 0.337238 0.018268 -2.899428
v 0.343680 0.005678 -2.882637
v 0.447145 0.475322 -2.956399
v 0.471944 0.476224 -2.951224
v 0.466690 0.480583 -2.926811
v 0.441891 0.479680 -2.931986
v 0.490768 0.450848 -2.918776
v 0.496022 0.446489 -2.943189
v 0.498084 0.481236 -2.922564
v 0.503338 0.476878 -2.946977
v 0.408435 0.444281 -2.956858
v 0.403181 0.448639 -2.932445
v 0.415750 0.474669 -2.960646
v 0.410497 0.479027 -2.936233
v 0.473403 0.584396 -2.969995
v 0.468150 0.588754 -2.945582
v 0.442009 0.583743 -2.974242
v 0.436756 0.588101 -2.949829
v 0.492925 0.589556 -2.940394
v 0.498178 0.585197 -2.964807
v 0.524319 0.590209 -2.936147
v 0.529572 0.585851 -2.960560
v 0.461126 0.448742 -2.931160
v 0.462877 0.447289 -2.939298
v 0.438078 0.446386 -2.944474
v 0.436326 0.447839 -2.936336
v 0.359549 0.014674 -2.885168
v 0.357781 0.016114 -2.877032
v 0.343680 0.005678 -2.882637
v 0.343680 0.005678 -2.882637
v 0.333702 0.021147 -2.883155
v 0.335470 0.019708 -2.891291
v 0.343680 0.005678 -2.882637
v 0.343680 0.005678 -2.882637
v 0.468441 0.479130 -2.934948
v 0.470192 0.477677 -2.943086
v 0.445393 0.476775 -2.948261
v 0.443642 0.478227 -2.940124
v 0.492520 0.449395 -2.926914
v 0.494271 0.447942 -2.935051
v 0.499835 0.479783 -2.930701
v 0.501587 0.478330 -2.938839
v 0.406683 0.445733 -2.948720
v 0.404932 0.447186 -2.940583
v 0.413999 0.476121 -2.952508
v 0.412248 0.477574 -2.944370
v 0.471652 0.585849 -2.961857
v 0.469901 0.587302 -2.953720
v 0.440258 0.585196 -2.966104
v 0.438507 0.586648 -2.957966
v 0.494676 0.588103 -2.948532
v 0.496427 0.586650 -2.956669
v 0.526070 0.588756 -2.944285
v 0.527821 0.587303 -2.952423
v 0.471374 0.593418 -2.954482
v 0.469623 0.594871 -2.946344
v 0.439980 0.592765 -2.958729
v 0.438228 0.594218 -2.950591
v 0.474876 0.590513 -2.970757
v 0.443482 0.589860 -2.975004
v 0.497900 0.592767 -2.957432
v 0.499651 0.591314 -2.965569
v 0.529294 0.593420 -2.953185
v 0.531045 0.591967 -2.961323
v 0.525791 0.596325 -2.936909
v 0.494397 0.595672 -2.941156
v 0.473125 0.591966 -2.962620
v 0.441731 0.591312 -2.966866
v 0.496148 0.594220 -2.949294
v 0.527542 0.594873 -2.945047
vn -0.2083 0.1702 0.9632
vn -0.0032 -0.9846 0.1751
vn -0.9501 0.1985 -0.2407
vn -0.9499 0.1986 -0.2415
vn 0.2083 -0.1702 -0.9632
vn 0.5074 -0.8229 0.2559
vn -0.3123 -0.5620 0.7659
vn -0.8360 -0.5421 -0.0857
vn -0.0163 -0.8030 -0.5958
vn 0.9504 -0.1970 0.2405
vn 0.0008 0.9845 -0.1756
vn 0.2072 -0.1700 -0.9634
vn -0.2072 0.1700 0.9634
vn -0.1356 0.1546 0.9786
vn 0.9502 -0.1988 0.2400
vn 0.1356 -0.1546 -0.9786
vn -0.9502 0.1988 -0.2400
vn 0.0032 0.9846 -0.1751
vn 0.9505 -0.1969 0.2405
vn 0.0032 0.9845 -0.1751
vt 0.050285 0.247815
vt 0.090415 0.257627
vt 0.090284 0.979309
vt 0.048981 0.979309
vt 0.377920 0.710604
vt 0.364164 0.709585
vt 0.364164 0.658696
vt 0.377920 0.659715
vt 0.295195 0.000027
vt 0.295195 0.721683
vt 0.281401 0.721682
vt 0.281401 0.000000
vt 0.405546 0.649108
vt 0.232487 0.979230
vt 0.191185 0.979230
vt 0.190986 0.257627
vt 0.231115 0.247815
vt 0.375160 0.771621
vt 0.364164 0.763293
vt 0.397152 0.754025
vt 0.068353 1.000000
vt 0.308989 0.721684
vt 0.322782 0.721685
vt 0.302060 0.742375
vt 0.210556 0.999921
vt 0.350370 0.731494
vt 0.350370 0.000026
vt 0.364164 0.000000
vt 0.364164 0.731495
vt 0.364164 0.740231
vt 0.405546 0.740231
vt 0.405546 0.754025
vt 0.364164 0.754025
vt 0.190986 0.206229
vt 0.231115 0.196417
vt 0.050285 0.196417
vt 0.090415 0.206229
vt 0.000000 0.235712
vt 0.000000 0.184314
vt 0.377958 0.235765
vt 0.364164 0.235791
vt 0.364164 0.184393
vt 0.377958 0.184367
vt 0.391676 0.606788
vt 0.405432 0.607807
vt 0.405432 0.658696
vt 0.391676 0.657677
vt 0.281401 0.184314
vt 0.231116 0.012103
vt 0.281401 -0.000000
vt 0.281401 0.235712
vt 0.336576 0.967404
vt 0.322782 0.967378
vt 0.322782 0.915980
vt 0.336576 0.916006
vt 0.140700 0.218332
vt 0.140700 0.269730
vt 0.140700 0.218332
vt 0.140700 0.033847
vt 0.190986 0.021744
vt 0.140700 0.269730
vt 0.415891 0.593854
vt 0.415891 0.607647
vt 0.405546 0.607667
vt 0.405546 0.593873
vt 0.322782 0.731495
vt 0.336576 0.731521
vt 0.377958 0.420329
vt 0.364164 0.420356
vt 0.364164 0.235871
vt 0.377958 0.235844
vt 0.090415 0.021744
vt 0.140700 0.033847
vt 0.405546 0.482035
vt 0.405546 0.430314
vt 0.415604 0.432735
vt 0.415604 0.484456
vt -0.000000 -0.000000
vt 0.050285 0.012103
vt 0.364164 0.000079
vt 0.377958 0.000053
vt 0.377958 0.604696
vt 0.364164 0.604670
vt 0.364164 0.420356
vt 0.377958 0.420382
vt 0.405546 0.604749
vt 0.391752 0.604723
vt 0.391752 0.420409
vt 0.405546 0.420435
vt 0.405546 0.184314
vt 0.391752 0.184340
vt 0.391752 0.000026
vt 0.405546 0.000000
vt 0.405546 0.621461
vt 0.415891 0.607687
vt 0.415891 0.621481
vt 0.405546 0.001003
vt 0.419303 -0.000000
vt 0.419303 0.051727
vt 0.405546 0.052730
vt 0.405546 0.420276
vt 0.391752 0.420303
vt 0.391752 0.235818
vt 0.405546 0.235791
vt 0.364164 0.916059
vt 0.350370 0.916033
vt 0.350370 0.731548
vt 0.364164 0.731574
vt 0.405546 0.265466
vt 0.405546 0.213745
vt 0.415604 0.216165
vt 0.415604 0.267887
vt 0.377921 0.840004
vt 0.364164 0.841007
vt 0.364164 0.789280
vt 0.377921 0.788277
vt 0.364164 0.967457
vt 0.350370 0.967431
vt 0.364164 0.604749
vt 0.377920 0.605768
vt 0.377920 0.656657
vt 0.364164 0.655638
vt 0.405546 0.235712
vt 0.391752 0.235738
vt 0.364164 0.712643
vt 0.405546 0.712643
vt 0.405546 0.726437
vt 0.364164 0.726437
vt 0.322782 0.731492
vt 0.322782 0.000077
vt 0.336576 0.000051
vt 0.336576 0.731493
vt 0.397152 0.788277
vt 0.386156 0.779949
vt 0.322782 0.000082
vt 0.308989 0.000055
vt 0.405432 0.712643
vt 0.391676 0.711624
vt 0.391676 0.660735
vt 0.405432 0.661754
vt 0.377921 0.892734
vt 0.364164 0.893737
vt 0.364164 0.842010
vt 0.377921 0.841007
vt 0.364164 0.947470
vt 0.377921 0.946467
vt 0.377921 0.998194
vt 0.364164 0.999197
vt 0.405546 0.053733
vt 0.419303 0.052730
vt 0.419303 0.104457
vt 0.405546 0.105460
vt 0.377921 0.945464
vt 0.364164 0.946467
vt 0.364164 0.894740
vt 0.377921 0.893737
vt 0.405546 0.319608
vt 0.405546 0.267887
vt 0.415604 0.270308
vt 0.415604 0.322029
vt 0.415891 0.580040
vt 0.415891 0.593834
vt 0.405546 0.593854
vt 0.405546 0.580060
vt 0.415604 0.322029
vt 0.415604 0.373751
vt 0.405546 0.376172
vt 0.405546 0.324450
vt 0.405546 0.580020
vt 0.405546 0.566226
vt 0.415891 0.566246
vt 0.415891 0.580040
vt 0.415604 0.159602
vt 0.415604 0.211324
vt 0.405546 0.213745
vt 0.405546 0.162023
vt 0.415891 0.552412
vt 0.415891 0.566206
vt 0.405546 0.566226
vt 0.405546 0.552432
vt 0.415891 0.621481
vt 0.415891 0.635275
vt 0.405545 0.635295
vt 0.405546 0.621501
vt 0.405546 0.427893
vt 0.405546 0.376172
vt 0.415604 0.378593
vt 0.415604 0.430314
vt 0.405546 0.649089
vt 0.405546 0.635295
vt 0.415891 0.635315
vt 0.415891 0.649108
vt 0.405546 0.552392
vt 0.405546 0.538599
vt 0.415891 0.538619
vt 0.415891 0.552412
vt 0.415604 0.105460
vt 0.415604 0.157181
vt 0.405546 0.159602
vt 0.405546 0.107881
vt 0.415604 0.484456
vt 0.415604 0.536178
vt 0.405546 0.538599
vt 0.405546 0.486877
s 0
f 1/1/1 2/2/1 7/3/1 5/4/1
f 36/5/2 2/6/2 22/7/2 54/8/2
f 36/9/3 41/10/3 7/11/3 2/12/3
f 40/13/4 43/13/4 12/13/4 9/13/4
f 10/14/5 11/15/5 4/16/5 3/17/5
f 38/18/6 5/19/6 6/20/6 39/20/6
f 5/4/7 7/3/7 8/21/7 6/21/7
f 42/22/8 11/23/8 12/24/8 43/24/8
f 11/15/9 10/14/9 9/25/9 12/25/9
f 38/26/10 33/27/10 1/28/10 5/29/10
f 45/30/11 48/31/11 16/32/11 15/33/11
f 3/17/12 4/16/12 13/34/12 14/35/12
f 2/2/13 1/1/13 15/36/13 16/37/13
f 15/36/14 1/1/14 17/38/14 19/39/14
f 50/40/15 18/41/15 20/42/15 52/43/15
f 34/44/2 3/45/2 18/46/2 50/47/2
f 20/48/16 14/35/16 30/49/16 32/50/16
f 3/17/16 14/35/16 20/48/16 18/51/16
f 54/52/17 22/53/17 24/54/17 56/55/17
f 2/2/14 16/37/14 24/56/14 22/57/14
f 13/34/16 23/58/16 27/59/16 25/60/16
f 13/34/16 4/16/16 21/61/16 23/58/16
f 27/62/17 59/63/17 78/64/17 70/65/17
f 56/55/17 24/54/17 28/66/17 60/67/17
f 47/68/15 13/69/15 25/70/15 57/71/15
f 24/56/14 16/37/14 26/72/14 28/73/14
f 32/74/16 30/75/16 72/76/16 74/77/16
f 15/36/14 19/39/14 31/78/14 29/79/14
f 52/43/15 20/42/15 32/80/15 64/81/15
f 45/82/17 15/83/17 29/84/17 61/85/17
f 14/86/17 46/87/17 62/88/17 30/89/17
f 46/87/17 45/82/17 61/85/17 62/88/17
f 19/90/15 51/91/15 63/92/15 31/93/15
f 51/91/15 52/43/15 64/81/15 63/92/15
f 57/94/15 25/64/15 69/95/15 77/96/15
f 62/97/18 61/98/18 63/99/18 64/100/18
f 16/101/15 48/102/15 58/103/15 26/104/15
f 48/102/15 47/68/15 57/71/15 58/103/15
f 23/105/17 55/106/17 59/107/17 27/108/17
f 55/106/17 56/55/17 60/67/17 59/107/17
f 25/109/16 27/110/16 70/111/16 69/112/16
f 58/113/18 57/114/18 59/115/18 60/116/18
f 21/117/17 53/118/17 55/106/17 23/105/17
f 53/118/17 54/52/17 56/55/17 55/106/17
f 1/119/2 33/120/2 49/121/2 17/122/2
f 33/120/2 34/44/2 50/47/2 49/121/2
f 17/123/15 49/124/15 51/91/15 19/90/15
f 49/124/15 50/40/15 52/43/15 51/91/15
f 14/125/11 13/126/11 47/127/11 46/128/11
f 46/128/11 47/127/11 48/31/11 45/30/11
f 10/129/19 3/130/19 34/131/19 37/132/19
f 37/132/19 34/131/19 33/27/19 38/26/19
f 7/11/8 41/10/8 44/24/8 8/24/8
f 41/10/8 42/22/8 43/24/8 44/24/8
f 10/133/6 37/134/6 40/20/6 9/20/6
f 37/134/6 38/18/6 39/20/6 40/20/6
f 6/13/4 8/13/4 44/13/4 39/13/4
f 39/13/4 44/13/4 43/13/4 40/13/4
f 4/135/3 11/23/3 42/22/3 35/136/3
f 35/136/3 42/22/3 41/10/3 36/9/3
f 4/137/2 35/138/2 53/139/2 21/140/2
f 35/138/2 36/5/2 54/8/2 53/139/2
f 77/141/18 69/142/18 70/143/18 78/144/18
f 79/145/18 76/146/18 75/147/18 80/148/18
f 72/149/18 71/150/18 73/151/18 74/152/18
f 66/153/20 65/154/20 67/155/20 68/156/20
f 58/157/16 60/158/16 67/159/16 65/160/16
f 61/161/17 29/162/17 76/163/17 79/164/17
f 59/165/14 57/166/14 77/167/14 78/168/14
f 26/169/15 58/170/15 65/171/15 66/172/15
f 62/173/14 64/174/14 73/175/14 71/176/14
f 30/177/17 62/178/17 71/179/17 72/180/17
f 60/181/17 28/182/17 68/183/17 67/184/17
f 63/185/16 61/186/16 79/187/16 80/188/16
f 64/189/15 32/190/15 74/191/15 73/192/15
f 31/193/15 63/194/15 80/195/15 75/196/15
f 28/197/14 26/198/14 66/199/14 68/200/14
f 29/201/14 31/202/14 75/203/14 76/204/14
