# Blender 4.3.2
# www.blender.org
mtllib Foot_2.mtl
o Foot_2
v 0.764944 0.450339 -2.874735
v 0.790160 0.449436 -2.872297
v 0.767193 0.445980 -2.899606
v 0.792409 0.445078 -2.897167
v 0.847517 0.017698 -2.792303
v 0.863380 0.005822 -2.801752
v 0.872327 0.022732 -2.790984
v 0.863380 0.005822 -2.801752
v 0.863380 0.005822 -2.801752
v 0.849717 0.013379 -2.817185
v 0.874527 0.018412 -2.815866
v 0.863380 0.005822 -2.801752
v 0.786552 0.475466 -2.902960
v 0.761336 0.476369 -2.905399
v 0.759087 0.480727 -2.880528
v 0.784303 0.479824 -2.878090
v 0.733708 0.450992 -2.880023
v 0.735957 0.446634 -2.904893
v 0.727851 0.481380 -2.885816
v 0.730100 0.477022 -2.910686
v 0.823645 0.444425 -2.891880
v 0.821396 0.448783 -2.867009
v 0.817787 0.474813 -2.897673
v 0.815538 0.479171 -2.872802
v 0.765528 0.584541 -2.923754
v 0.763279 0.588899 -2.898884
v 0.796763 0.583887 -2.918467
v 0.794514 0.588246 -2.893596
v 0.738083 0.589700 -2.901303
v 0.740332 0.585342 -2.926173
v 0.706847 0.590353 -2.906590
v 0.709096 0.585995 -2.931460
v 0.765694 0.448886 -2.883025
v 0.766443 0.447433 -2.891315
v 0.791659 0.446531 -2.888877
v 0.790910 0.447984 -2.880587
v 0.848984 0.014818 -2.808891
v 0.848251 0.016258 -2.800597
v 0.863380 0.005822 -2.801752
v 0.863380 0.005822 -2.801752
v 0.873060 0.021292 -2.799278
v 0.873793 0.019852 -2.807571
v 0.863380 0.005822 -2.801752
v 0.863380 0.005822 -2.801752
v 0.759836 0.479274 -2.888818
v 0.760586 0.477821 -2.897109
v 0.785802 0.476919 -2.894670
v 0.785052 0.478372 -2.886380
v 0.734458 0.449539 -2.888313
v 0.735208 0.448086 -2.896603
v 0.728601 0.479927 -2.894106
v 0.729350 0.478475 -2.902396
v 0.822895 0.445878 -2.883590
v 0.822145 0.447330 -2.875299
v 0.817038 0.476266 -2.889383
v 0.816288 0.477718 -2.881093
v 0.764778 0.585993 -2.915464
v 0.764028 0.587446 -2.907174
v 0.796014 0.585340 -2.910177
v 0.795264 0.586793 -2.901886
v 0.738832 0.588247 -2.909593
v 0.739582 0.586794 -2.917883
v 0.707597 0.588900 -2.914880
v 0.708346 0.587448 -2.923170
v 0.762850 0.593563 -2.908340
v 0.762100 0.595015 -2.900050
v 0.794085 0.592909 -2.903052
v 0.793335 0.594362 -2.894762
v 0.764349 0.590657 -2.924920
v 0.795584 0.590004 -2.919633
v 0.738403 0.592911 -2.919049
v 0.739153 0.591458 -2.927339
v 0.707167 0.593564 -2.924336
v 0.707917 0.592112 -2.932626
v 0.705668 0.596470 -2.907756
v 0.736904 0.595816 -2.902469
v 0.763599 0.592110 -2.916630
v 0.794835 0.591457 -2.911342
v 0.737653 0.594364 -2.910759
v 0.706418 0.595017 -2.916046
vn -0.0878 0.1702 0.9815
vn -0.0490 -0.9846 0.1681
vn 0.9787 0.1985 0.0529
vn -0.9519 0.1986 -0.2333
vn 0.0878 -0.1702 -0.9815
vn -0.5605 -0.8229 0.0933
vn 0.0702 -0.5620 0.8242
vn 0.8236 -0.5421 0.1669
vn 0.1929 -0.8030 -0.5640
vn -0.9790 -0.1970 -0.0532
vn 0.0515 0.9845 -0.1679
vn 0.0888 -0.1700 -0.9814
vn -0.0888 0.1700 0.9814
vn -0.1617 0.1546 0.9746
vn -0.9786 -0.1988 -0.0536
vn 0.1617 -0.1546 -0.9746
vn 0.9786 0.1988 0.0536
vn 0.0490 0.9846 -0.1681
vn -0.9790 -0.1969 -0.0532
vn 0.0490 0.9845 -0.1681
vt 0.241976 0.000000
vt 0.241976 0.972537
vt 0.187064 0.972439
vt 0.188600 0.012950
vt 0.071642 0.361322
vt 0.071642 0.428980
vt 0.053353 0.430335
vt 0.053353 0.362677
vt 0.333567 0.000036
vt 0.351906 0.000000
vt 0.351906 0.959490
vt 0.333567 0.959492
vt 0.108220 0.358612
vt 0.241976 0.972432
vt 0.241976 0.000000
vt 0.295354 0.012945
vt 0.296888 0.972329
vt 0.108371 0.467014
vt 0.144674 0.457830
vt 0.108371 0.485353
vt 0.216172 1.000000
vt 0.315228 0.959493
vt 0.324439 0.987002
vt 0.296888 0.959494
vt 0.271185 0.999886
vt 0.370245 0.972535
vt 0.351906 0.972536
vt 0.351906 0.000000
vt 0.370245 0.000034
vt 0.090032 0.430335
vt 0.108371 0.430335
vt 0.108371 0.485353
vt 0.090032 0.485353
vt -0.000000 0.426946
vt -0.000000 0.358612
vt 0.053353 0.371657
vt 0.053353 0.439991
vt 0.066855 0.342520
vt 0.066855 0.274186
vt 0.120209 0.261140
vt 0.120209 0.329475
vt 0.187064 0.245049
vt 0.187064 0.313383
vt 0.577312 0.627170
vt 0.577313 0.558836
vt 0.595652 0.558871
vt 0.595652 0.627205
vt 0.144799 0.427625
vt 0.144799 0.359967
vt 0.163088 0.358612
vt 0.163088 0.426269
vt 0.473779 0.245049
vt 0.473779 0.000000
vt 0.540634 0.016092
vt 0.540634 0.261140
vt 0.540634 0.329475
vt 0.473779 0.313383
vt 0.577313 0.313646
vt 0.577313 0.245312
vt 0.595652 0.245277
vt 0.595652 0.313611
vt -0.000000 0.358612
vt 0.000000 0.290277
vt 0.406923 0.245277
vt 0.406923 -0.000000
vt 0.473779 0.016092
vt 0.473779 0.261368
vt 0.473779 0.329702
vt 0.406923 0.313611
vt 0.013754 0.510097
vt 0.027509 0.510123
vt 0.027509 0.528462
vt 0.013755 0.528436
vt 0.577313 0.000035
vt 0.595652 0.000000
vt 0.510457 0.574822
vt 0.510457 0.329545
vt 0.528796 0.329580
vt 0.528796 0.574857
vt 0.000000 0.045001
vt 0.066855 0.028909
vt 0.125134 0.488571
vt 0.138507 0.485353
vt 0.138507 0.554117
vt 0.125134 0.557336
vt 0.120209 0.016092
vt 0.187064 0.000000
vt 0.577313 0.313787
vt 0.595652 0.313822
vt 0.443602 0.574787
vt 0.443602 0.329738
vt 0.461941 0.329702
vt 0.461941 0.574751
vt 0.406924 0.574857
vt 0.406924 0.329808
vt 0.425263 0.329773
vt 0.425263 0.574822
vt 0.540634 0.558766
vt 0.540634 0.313717
vt 0.558973 0.313752
vt 0.558973 0.558801
vt 0.050336 0.530314
vt 0.036581 0.530340
vt 0.036581 0.512001
vt 0.050336 0.511974
vt 0.163088 0.427384
vt 0.163088 0.358612
vt 0.181378 0.359945
vt 0.181378 0.428717
vt 0.473779 0.574751
vt 0.473779 0.329475
vt 0.492118 0.329510
vt 0.492118 0.574787
vt 0.540634 0.245382
vt 0.540634 0.000106
vt 0.558973 0.000070
vt 0.558973 0.245347
vt 0.085016 0.488571
vt 0.098389 0.485353
vt 0.098389 0.554117
vt 0.085016 0.557336
vt 0.162964 0.431669
vt 0.162964 0.500441
vt 0.144674 0.499107
vt 0.144674 0.430335
vt 0.540634 0.313717
vt 0.558973 0.313681
vt 0.108220 0.430335
vt 0.108220 0.362677
vt 0.126509 0.361322
vt 0.126509 0.428980
vt 0.540634 0.627100
vt 0.558973 0.627135
vt 0.053353 0.430335
vt 0.071692 0.430335
vt 0.071692 0.485353
vt 0.053353 0.485353
vt 0.406924 0.972533
vt 0.388584 0.972534
vt 0.388584 0.000068
vt 0.406923 0.000102
vt 0.108371 0.430335
vt 0.108371 0.448674
vt 0.296888 0.000109
vt 0.315228 0.000073
vt 0.108220 0.358612
vt 0.108220 0.426269
vt 0.089931 0.427625
vt 0.089931 0.359967
vt 0.181378 0.430051
vt 0.181378 0.498823
vt 0.163088 0.497489
vt 0.163088 0.428717
vt 0.018291 0.508763
vt 0.018291 0.439991
vt 0.036581 0.441325
vt 0.036581 0.510097
vt 0.053353 0.554125
vt 0.053353 0.485353
vt 0.071644 0.486686
vt 0.071644 0.555458
vt 0.018291 0.441325
vt 0.018291 0.510097
vt -0.000000 0.508763
vt -0.000000 0.439991
vt 0.071644 0.488572
vt 0.085016 0.485353
vt 0.085016 0.554117
vt 0.071644 0.557336
vt 0.036581 0.530340
vt 0.050336 0.530366
vt 0.050336 0.548706
vt 0.036581 0.548679
vt 0.125134 0.557336
vt 0.111761 0.554117
vt 0.111761 0.485353
vt 0.125134 0.488571
vt 0.013754 0.546801
vt 0.000000 0.546828
vt 0.000000 0.528489
vt 0.013754 0.528462
vt 0.176460 0.570806
vt 0.163088 0.567587
vt 0.163088 0.498823
vt 0.176460 0.502041
vt 0.013755 0.546828
vt 0.027509 0.546854
vt 0.027509 0.565193
vt 0.013755 0.565167
vt -0.000000 0.510097
vt 0.013754 0.510123
vt 0.013754 0.528462
vt 0.000000 0.528436
vt 0.144674 0.503659
vt 0.158046 0.500441
vt 0.158046 0.569205
vt 0.144674 0.572424
vt 0.013754 0.565167
vt -0.000000 0.565193
vt -0.000000 0.546854
vt 0.013754 0.546828
vt 0.027509 0.546801
vt 0.013754 0.546828
vt 0.013754 0.528489
vt 0.027509 0.528462
vt 0.049954 0.511974
vt 0.036581 0.508756
vt 0.036581 0.439991
vt 0.049954 0.443210
vt 0.111761 0.557336
vt 0.098389 0.554117
vt 0.098389 0.485353
vt 0.111761 0.488571
s 0
f 1/1/1 5/2/1 7/3/1 2/4/1
f 36/5/2 54/6/2 22/7/2 2/8/2
f 36/9/3 2/10/3 7/11/3 41/12/3
f 40/13/4 9/13/4 12/13/4 43/13/4
f 10/14/5 3/15/5 4/16/5 11/17/5
f 38/18/6 39/19/6 6/19/6 5/20/6
f 5/2/7 6/21/7 8/21/7 7/3/7
f 42/22/8 43/23/8 12/23/8 11/24/8
f 11/17/9 12/25/9 9/25/9 10/14/9
f 38/26/10 5/27/10 1/28/10 33/29/10
f 45/30/11 15/31/11 16/32/11 48/33/11
f 3/34/12 14/35/12 13/36/12 4/37/12
f 2/38/13 16/39/13 15/40/13 1/41/13
f 15/40/14 19/42/14 17/43/14 1/41/14
f 50/44/15 52/45/15 20/46/15 18/47/15
f 34/48/2 50/49/2 18/50/2 3/51/2
f 20/52/16 32/53/16 30/54/16 14/55/16
f 3/56/16 18/57/16 20/52/16 14/55/16
f 54/58/17 56/59/17 24/60/17 22/61/17
f 2/38/14 22/62/14 24/63/14 16/39/14
f 13/64/16 25/65/16 27/66/16 23/67/16
f 13/64/16 23/67/16 21/68/16 4/69/16
f 27/70/17 70/71/17 78/72/17 59/73/17
f 56/59/17 60/74/17 28/75/17 24/60/17
f 47/76/15 57/77/15 25/78/15 13/79/15
f 24/63/14 28/80/14 26/81/14 16/39/14
f 32/82/16 74/83/16 72/84/16 30/85/16
f 15/40/14 29/86/14 31/87/14 19/42/14
f 52/45/15 64/88/15 32/89/15 20/46/15
f 45/90/17 61/91/17 29/92/17 15/93/17
f 14/94/17 30/95/17 62/96/17 46/97/17
f 46/97/17 62/96/17 61/91/17 45/90/17
f 19/98/15 31/99/15 63/100/15 51/101/15
f 51/101/15 63/100/15 64/88/15 52/45/15
f 57/102/15 77/103/15 69/104/15 25/105/15
f 62/106/18 64/107/18 63/108/18 61/109/18
f 16/110/15 26/111/15 58/112/15 48/113/15
f 48/113/15 58/112/15 57/77/15 47/76/15
f 23/114/17 27/115/17 59/116/17 55/117/17
f 55/117/17 59/116/17 60/74/17 56/59/17
f 25/118/16 69/119/16 70/120/16 27/121/16
f 58/122/18 60/123/18 59/124/18 57/125/18
f 21/126/17 23/114/17 55/117/17 53/127/17
f 53/127/17 55/117/17 56/59/17 54/58/17
f 1/128/2 17/129/2 49/130/2 33/131/2
f 33/131/2 49/130/2 50/49/2 34/48/2
f 17/132/15 19/98/15 51/101/15 49/133/15
f 49/133/15 51/101/15 52/45/15 50/44/15
f 14/134/11 46/135/11 47/136/11 13/137/11
f 46/135/11 45/30/11 48/33/11 47/136/11
f 10/138/19 37/139/19 34/140/19 3/141/19
f 37/139/19 38/26/19 33/29/19 34/140/19
f 7/11/8 8/23/8 44/23/8 41/12/8
f 41/12/8 44/23/8 43/23/8 42/22/8
f 10/142/6 9/19/6 40/19/6 37/143/6
f 37/143/6 40/19/6 39/19/6 38/18/6
f 6/13/4 39/13/4 44/13/4 8/13/4
f 39/13/4 40/13/4 43/13/4 44/13/4
f 4/144/3 35/145/3 42/22/3 11/24/3
f 35/145/3 36/9/3 41/12/3 42/22/3
f 4/146/2 21/147/2 53/148/2 35/149/2
f 35/149/2 53/148/2 54/6/2 36/5/2
f 77/150/20 78/151/20 70/152/20 69/153/20
f 79/154/20 80/155/20 75/156/20 76/157/20
f 72/158/18 74/159/18 73/160/18 71/161/18
f 66/162/18 68/163/18 67/164/18 65/165/18
f 58/166/16 65/167/16 67/168/16 60/169/16
f 61/170/17 79/171/17 76/172/17 29/173/17
f 59/174/14 78/175/14 77/176/14 57/177/14
f 26/178/15 66/179/15 65/180/15 58/181/15
f 62/182/14 71/183/14 73/184/14 64/185/14
f 30/186/17 72/187/17 71/188/17 62/189/17
f 60/190/17 67/191/17 68/192/17 28/193/17
f 63/194/16 80/195/16 79/196/16 61/197/16
f 64/198/15 73/199/15 74/200/15 32/201/15
f 31/202/15 75/203/15 80/204/15 63/205/15
f 28/206/14 68/207/14 66/208/14 26/209/14
f 29/210/14 76/211/14 75/212/14 31/213/14
