# Blender 4.3.2
# www.blender.org
mtllib Grot_Platform_7.mtl
o Grot_Platform_007
v 2.021065 -0.347885 -2.940147
v 1.939538 0.136238 -3.014988
v 2.042389 -0.460754 -2.450416
v 1.924762 0.216916 -2.833257
v 1.254696 -0.854991 -3.091016
v 1.070283 -0.453201 -3.167640
v 1.504792 -0.813601 -2.564720
v 1.050236 -0.389544 -2.999879
v 2.074820 -0.525953 -2.590440
v 2.055108 -0.064237 -3.014230
v 1.981448 0.233942 -2.910589
v 1.991546 -0.116120 -2.734616
v 1.756183 -0.616684 -2.381946
v 1.461238 -0.017967 -2.903058
v 1.307823 -0.573200 -2.875036
v 1.418830 -0.957559 -2.726820
v 0.980123 -0.459053 -3.096387
v 1.159166 -0.660425 -3.184679
v 1.576332 -0.556770 -3.009291
v 1.482825 -0.122734 -3.092645
v 1.451188 -0.044232 -3.004900
v 1.723097 -0.801743 -2.523200
v 1.543518 -0.278463 -3.101399
v 1.225522 -0.711353 -3.008684
v 1.583303 -0.215195 -2.753907
v 2.099044 -0.128080 -2.832673
v 2.064447 -0.439485 -2.792041
v 2.009121 0.072678 -3.017559
v 1.970594 0.253549 -2.857495
v 2.033117 -0.322906 -2.576939
v 1.934795 -0.519661 -2.387363
v 1.181770 -0.235615 -2.961215
v 1.435219 -0.716370 -2.703445
v 1.481438 -0.907437 -2.595589
v 1.008657 -0.466352 -3.144502
v 1.200428 -0.788653 -3.162447
v 1.352392 -0.742652 -3.070125
v 1.762007 0.053185 -3.047547
v 2.075869 -0.517157 -2.469588
v 2.061934 -0.217937 -2.994294
v 1.973459 0.194226 -2.971745
v 1.966018 0.104703 -2.808406
v 1.599073 -0.740009 -2.458745
v 1.751109 0.160582 -2.853558
v 1.134503 -0.464610 -2.971188
v 1.311391 -0.936725 -2.943395
v 0.983830 -0.432231 -3.043891
v 1.094585 -0.541726 -3.182994
v 1.846738 -0.415344 -2.973390
v 1.214630 -0.317810 -3.141564
v 1.461909 -0.078887 -3.057407
v 1.447032 -0.015226 -2.950089
v 1.144196 -0.268912 -3.062275
v 1.758808 0.158966 -2.949882
v 1.644460 -0.712721 -2.780499
v 1.768072 -0.762278 -2.372224
v 1.923954 -0.671697 -2.520453
v 1.546760 -0.919870 -2.598872
v 1.834587 -0.127876 -3.061111
v 1.295546 -0.486334 -3.162497
v 1.552408 -0.404457 -3.097107
v 1.516215 -0.186306 -3.101284
v 1.163524 -0.723041 -3.114236
v 1.262752 -0.671822 -2.933528
v 1.334589 -0.861478 -2.877755
v 1.055299 -0.589938 -3.082129
v 1.411646 -0.392214 -2.809667
v 1.804786 -0.129392 -2.728926
v 1.681135 -0.412641 -2.553300
v 1.506452 -0.081272 -2.858435
v 2.072757 -0.130405 -2.767597
v 2.119431 -0.085988 -2.927660
v 2.116169 -0.346174 -2.715964
v 2.074297 0.105072 -2.886363
v 2.052489 0.114535 -2.832708
v 1.278448 -0.282436 -2.914191
v 1.045273 -0.597255 -3.147955
v 1.799753 -0.022256 -3.059412
v 1.442048 -0.863861 -2.850754
v 1.755805 0.113055 -3.007152
v 1.171872 -0.288610 -3.109700
v 1.138651 -0.243901 -3.009558
v 1.756331 0.187916 -2.894404
v 1.882626 -0.572914 -2.762306
v 1.949721 -0.645313 -2.378864
v 1.603975 -0.872315 -2.452154
v 1.843203 -0.261156 -3.056076
v 1.312736 -0.612859 -3.158528
v 1.258197 -0.384990 -3.155788
v 1.238359 -0.865067 -3.042310
v 1.390144 -0.815424 -2.772186
v 1.072038 -0.556665 -3.024034
v 1.528134 -0.563467 -2.618473
v 1.875873 -0.334633 -2.544892
v 1.765853 0.051528 -2.818923
v 2.098660 -0.349040 -2.622724
v 2.129604 -0.275813 -2.863976
v 2.079874 0.102717 -2.955520
vn 0.4937 -0.5928 -0.6363
vn 0.0959 0.4169 -0.9039
vn 0.3946 0.4665 0.7916
vn -0.1045 0.4334 0.8951
vn 0.3327 -0.6862 -0.6469
vn -0.2168 0.2177 -0.9516
vn -0.8125 0.0893 0.5760
vn -0.5364 0.1444 0.8315
vn 0.7032 -0.6677 -0.2441
vn 0.4105 -0.0045 -0.9119
vn 0.0625 0.9031 -0.4249
vn 0.1698 0.4892 0.8555
vn -0.2870 0.2873 0.9138
vn -0.5130 0.5848 0.6283
vn -0.6588 0.0003 0.7524
vn 0.3467 -0.9061 -0.2427
vn -0.8337 0.4225 -0.3555
vn -0.0345 -0.1630 -0.9860
vn 0.4723 -0.5101 -0.7188
vn -0.1099 0.3895 -0.9144
vn -0.4334 0.7523 -0.4962
vn 0.5518 -0.8272 -0.1057
vn 0.1570 0.0339 -0.9870
vn -0.7776 -0.3623 0.5139
vn -0.4073 0.4143 0.8139
vn 0.9481 0.1841 0.2593
vn 0.5944 -0.6596 -0.4601
vn 0.2944 0.1765 -0.9392
vn -0.1086 0.9194 0.3781
vn 0.2820 0.6279 0.7254
vn 0.0044 0.3453 0.9385
vn -0.5689 0.4615 0.6807
vn -0.8119 0.1026 0.5746
vn -0.6066 -0.5454 0.5784
vn -0.5531 0.3688 -0.7470
vn 0.1714 -0.4675 -0.8672
vn 0.5920 -0.4360 -0.6778
vn -0.0680 0.4064 -0.9112
vn 0.8336 -0.4025 0.3783
vn 0.4723 -0.3308 -0.8170
vn 0.0609 0.7307 -0.6800
vn 0.0483 0.3207 0.9460
vn -0.6329 0.1604 0.7574
vn -0.3707 0.6117 0.6989
vn -0.4767 -0.0602 0.8770
vn 0.3529 -0.8288 -0.4343
vn -0.8814 0.3984 0.2539
vn -0.1221 0.0157 -0.9924
vn 0.3805 -0.5619 -0.7345
vn -0.1684 0.3831 -0.9082
vn -0.3255 0.6465 -0.6899
vn -0.5578 0.8250 -0.0907
vn -0.5383 0.7007 -0.4683
vn -0.3307 0.8055 -0.4918
vn 0.5400 -0.6822 -0.4930
vn 0.2288 -0.5685 0.7902
vn 0.5921 -0.7936 -0.1399
vn 0.4307 -0.8958 -0.1100
vn 0.1690 0.0117 -0.9855
vn 0.1539 0.0404 -0.9873
vn 0.2945 -0.1730 -0.9398
vn 0.0832 0.1330 -0.9876
vn -0.8566 -0.5133 0.0524
vn -0.7384 -0.2103 0.6407
vn -0.8646 -0.1368 0.4834
vn -0.7675 -0.5475 0.3333
vn -0.5873 0.2234 0.7779
vn -0.1864 0.4921 0.8503
vn -0.4219 0.5112 0.7488
vn -0.3679 0.3069 0.8777
vn 0.7087 0.3713 0.5999
vn 0.9557 0.0554 -0.2891
vn 0.9907 -0.1349 0.0189
vn 0.9147 0.3813 0.1336
vn 0.5558 0.3624 0.7482
vn -0.4357 0.1597 0.8858
vn -0.7038 -0.4502 -0.5496
vn 0.1082 0.1195 -0.9869
vn 0.6291 -0.6241 -0.4633
vn -0.2574 0.6924 -0.6740
vn -0.4089 0.6051 -0.6832
vn -0.6483 0.7579 -0.0731
vn -0.4414 0.8973 0.0036
vn 0.4811 -0.7412 -0.4682
vn 0.4593 -0.4871 0.7428
vn 0.2451 -0.8538 0.4593
vn 0.2708 -0.2238 -0.9363
vn 0.3222 -0.1592 -0.9332
vn 0.0635 0.1434 -0.9876
vn -0.7944 -0.6034 0.0692
vn -0.8601 -0.0279 0.5094
vn -0.6179 -0.3406 0.7086
vn -0.6945 0.2883 0.6592
vn -0.1574 0.6128 0.7744
vn -0.2199 0.3179 0.9222
vn 0.8862 0.2529 0.3881
vn 0.8790 -0.3154 -0.3576
vn 0.7932 0.3668 -0.4860
vt 0.717508 0.390370
vt 0.706362 0.526768
vt 0.671380 0.527487
vt 0.680017 0.379797
vt 0.694346 0.627884
vt 0.658487 0.631464
vt 0.642648 0.620975
vt 0.646027 0.542758
vt 0.646346 0.400052
vt 0.442865 0.488230
vt 0.440857 0.620748
vt 0.365822 0.603625
vt 0.373783 0.472410
vt 0.441243 0.684511
vt 0.360187 0.675209
vt 0.303230 0.645297
vt 0.296478 0.569690
vt 0.298966 0.441388
vt 0.214334 0.443727
vt 0.216233 0.556242
vt 0.179700 0.566033
vt 0.173866 0.474125
vt 0.233613 0.652814
vt 0.198604 0.648941
vt 0.177403 0.641342
vt 0.159709 0.584894
vt 0.145387 0.511083
vt 0.897236 0.528389
vt 0.881725 0.588813
vt 0.823109 0.576466
vt 0.840570 0.509837
vt 0.868333 0.634863
vt 0.805364 0.628740
vt 0.770357 0.608118
vt 0.783569 0.552318
vt 0.803097 0.469437
vt 0.225698 0.118782
vt 0.226326 0.171854
vt 0.163689 0.292357
vt 0.131429 0.246703
vt 0.209638 0.236776
vt 0.171713 0.338325
vt 0.149365 0.409646
vt 0.117809 0.412286
vt 0.055389 0.402845
vt 0.766325 0.848484
vt 0.821724 0.817387
vt 0.819128 0.854658
vt 0.766325 0.887443
vt 0.869580 0.808249
vt 0.865803 0.850040
vt 0.859902 0.884530
vt 0.822629 0.894841
vt 0.770484 0.924111
vt 0.551183 0.894613
vt 0.601575 0.857501
vt 0.600977 0.888147
vt 0.556287 0.926358
vt 0.658007 0.819912
vt 0.655794 0.857013
vt 0.653238 0.892463
vt 0.599227 0.920465
vt 0.563040 0.945841
vt 0.551183 0.831689
vt 0.594689 0.798863
vt 0.602874 0.826723
vt 0.551337 0.860825
vt 0.650108 0.754039
vt 0.657551 0.782346
vt 0.772611 0.781935
vt 0.826554 0.762908
vt 0.823695 0.787529
vt 0.769678 0.811783
vt 0.863575 0.754039
vt 0.866265 0.772199
vt 0.688881 0.157704
vt 0.678026 0.103989
vt 0.775378 0.211151
vt 0.760889 0.248160
vt 0.696640 0.073212
vt 0.812773 0.191999
vt 0.896825 0.342253
vt 0.844444 0.342199
vt 0.809374 0.331544
vt 0.612755 0.152096
vt 0.584969 0.131876
vt 0.613813 0.087748
vt 0.637706 0.130634
vt 0.554613 0.118681
vt 0.608099 0.054159
vt 0.380751 0.098076
vt 0.333119 0.138725
vt 0.271162 0.107798
vt 0.294485 0.054159
vt 0.291242 0.189773
vt 0.248350 0.183908
vt 0.913231 0.453063
vt 0.856247 0.436896
vt 0.814302 0.391461
vt 0.144872 0.451092
vt 0.119457 0.492524
vt 0.119840 0.561597
vt 0.059376 0.611783
vt 0.054159 0.525049
vt 0.133834 0.630265
vt 0.149396 0.687110
vt 0.088218 0.733771
vt 0.075342 0.680929
vt 0.210283 0.334621
vt 0.166436 0.397607
vt 0.301360 0.294425
vt 0.251361 0.299189
vt 0.251229 0.430249
vt 0.252190 0.555467
vt 0.271738 0.654695
vt 0.442865 0.280932
vt 0.376999 0.290205
vt 0.626531 0.245269
vt 0.583147 0.265913
vt 0.606634 0.444407
vt 0.568903 0.472859
vt 0.551183 0.282601
vt 0.610542 0.575359
vt 0.612522 0.644742
vt 0.551183 0.645722
vt 0.559359 0.590250
vt 0.709796 0.257085
vt 0.664485 0.233623
vt 0.766130 0.322550
vt 0.763062 0.425933
vt 0.747318 0.536397
vt 0.736752 0.620634
s 1
usemtl Material
f 26/1/26 74/2/74 75/3/75 71/4/71
f 74/2/74 11/5/11 29/6/29 75/3/75
f 75/3/75 29/6/29 4/7/4 42/8/42
f 71/4/71 75/3/75 42/8/42 12/9/12
f 25/10/25 70/11/70 76/12/76 67/13/67
f 70/11/70 14/14/14 32/15/32 76/12/76
f 76/12/76 32/15/32 8/16/8 45/17/45
f 67/13/67 76/12/76 45/17/45 15/18/15
f 24/19/24 66/20/66 77/21/77 63/22/63
f 66/20/66 17/23/17 35/24/35 77/21/77
f 77/21/77 35/24/35 6/25/6 48/26/48
f 63/22/63 77/21/77 48/26/48 18/27/18
f 23/28/23 62/29/62 78/30/78 59/31/59
f 62/29/62 20/32/20 38/33/38 78/30/78
f 78/30/78 38/33/38 2/34/2 28/35/28
f 59/31/59 78/30/78 28/35/28 10/36/10
f 22/37/22 58/38/58 79/39/79 55/40/55
f 58/38/58 16/41/16 46/42/46 79/39/79
f 79/39/79 46/42/46 5/43/5 37/44/37
f 55/40/55 79/39/79 37/44/37 19/45/19
f 21/46/21 54/47/54 80/48/80 51/49/51
f 54/47/54 11/50/11 41/51/41 80/48/80
f 80/48/80 41/51/41 2/52/2 38/53/38
f 51/49/51 80/48/80 38/53/38 20/54/20
f 17/55/17 53/56/53 81/57/81 35/58/35
f 53/56/53 21/59/21 51/60/51 81/57/81
f 81/57/81 51/60/51 20/61/20 50/62/50
f 35/58/35 81/57/81 50/62/50 6/63/6
f 8/64/8 32/65/32 82/66/82 47/67/47
f 32/65/32 14/68/14 52/69/52 82/66/82
f 82/66/82 52/69/52 21/59/21 53/56/53
f 47/67/47 82/66/82 53/56/53 17/55/17
f 14/70/14 44/71/44 83/72/83 52/73/52
f 44/71/44 4/74/4 29/75/29 83/72/83
f 83/72/83 29/75/29 11/50/11 54/47/54
f 52/73/52 83/72/83 54/47/54 21/46/21
f 9/76/9 57/77/57 84/78/84 27/79/27
f 57/77/57 22/80/22 55/81/55 84/78/84
f 84/78/84 55/81/55 19/82/19 49/83/49
f 27/79/27 84/78/84 49/83/49 1/84/1
f 3/85/3 31/86/31 85/87/85 39/88/39
f 31/86/31 13/89/13 56/90/56 85/87/85
f 85/87/85 56/90/56 22/80/22 57/77/57
f 39/88/39 85/87/85 57/77/57 9/76/9
f 13/91/13 43/92/43 86/93/86 56/94/56
f 43/92/43 7/95/7 34/96/34 86/93/86
f 86/93/86 34/96/34 16/41/16 58/38/58
f 56/94/56 86/93/86 58/38/58 22/37/22
f 19/82/19 61/97/61 87/98/87 49/83/49
f 61/97/61 23/28/23 59/31/59 87/98/87
f 87/98/87 59/31/59 10/36/10 40/99/40
f 49/83/49 87/98/87 40/99/40 1/84/1
f 5/43/5 36/100/36 88/101/88 37/44/37
f 36/100/36 18/27/18 60/102/60 88/101/88
f 88/101/88 60/102/60 23/103/23 61/104/61
f 37/44/37 88/101/88 61/104/61 19/45/19
f 18/27/18 48/26/48 89/105/89 60/102/60
f 48/26/48 6/25/6 50/106/50 89/105/89
f 89/105/89 50/106/50 20/107/20 62/108/62
f 60/102/60 89/105/89 62/108/62 23/103/23
f 16/41/16 65/109/65 90/110/90 46/42/46
f 65/109/65 24/19/24 63/22/63 90/110/90
f 90/110/90 63/22/63 18/27/18 36/100/36
f 46/42/46 90/110/90 36/100/36 5/43/5
f 7/95/7 33/111/33 91/112/91 34/96/34
f 33/111/33 15/18/15 64/113/64 91/112/91
f 91/112/91 64/113/64 24/19/24 65/109/65
f 34/96/34 91/112/91 65/109/65 16/41/16
f 15/18/15 45/17/45 92/114/92 64/113/64
f 45/17/45 8/16/8 47/115/47 92/114/92
f 92/114/92 47/115/47 17/23/17 66/20/66
f 64/113/64 92/114/92 66/20/66 24/19/24
f 13/91/13 69/116/69 93/117/93 43/92/43
f 69/116/69 25/10/25 67/13/67 93/117/93
f 93/117/93 67/13/67 15/18/15 33/111/33
f 43/92/43 93/117/93 33/111/33 7/95/7
f 3/85/3 30/118/30 94/119/94 31/86/31
f 30/118/30 12/9/12 68/120/68 94/119/94
f 94/119/94 68/120/68 25/121/25 69/122/69
f 31/86/31 94/119/94 69/122/69 13/89/13
f 12/9/12 42/8/42 95/123/95 68/120/68
f 42/8/42 4/7/4 44/124/44 95/123/95
f 95/123/95 44/124/44 14/125/14 70/126/70
f 68/120/68 95/123/95 70/126/70 25/121/25
f 9/76/9 73/127/73 96/128/96 39/88/39
f 73/127/73 26/1/26 71/4/71 96/128/96
f 96/128/96 71/4/71 12/9/12 30/118/30
f 39/88/39 96/128/96 30/118/30 3/85/3
f 1/84/1 40/99/40 97/129/97 27/79/27
f 40/99/40 10/36/10 72/130/72 97/129/97
f 97/129/97 72/130/72 26/1/26 73/127/73
f 27/79/27 97/129/97 73/127/73 9/76/9
f 10/36/10 28/35/28 98/131/98 72/130/72
f 28/35/28 2/34/2 41/132/41 98/131/98
f 98/131/98 41/132/41 11/5/11 74/2/74
f 72/130/72 98/131/98 74/2/74 26/1/26
