# Blender 4.3.2
# www.blender.org
mtllib Grot_Platform_6.mtl
o Grot_Platform_006
v -1.845495 2.150784 -2.186601
v -1.848059 2.236822 -1.697507
v -1.644455 1.703096 -2.297008
v -1.764138 2.076236 -1.614305
v -1.175507 2.631943 -2.618851
v -1.078914 2.766376 -2.201823
v -1.178360 2.048178 -2.597426
v -0.994709 2.621240 -2.135169
v -1.727759 1.817933 -2.366162
v -1.933497 2.193527 -1.908155
v -1.849791 2.121279 -1.603440
v -1.751771 1.969874 -1.951406
v -1.343743 1.768904 -2.424122
v -1.356202 2.345442 -1.804073
v -1.156109 2.404560 -2.341729
v -1.157595 2.236250 -2.733763
v -0.966790 2.740756 -2.198395
v -1.147387 2.750796 -2.416768
v -1.456517 2.410480 -2.352296
v -1.447437 2.511031 -1.911971
v -1.388466 2.442629 -1.830078
v -1.357852 1.916931 -2.606285
v -1.491671 2.498273 -2.072882
v -1.126958 2.565168 -2.472408
v -1.384137 2.165208 -2.010907
v -1.889364 2.012898 -1.974448
v -1.812701 2.001551 -2.280741
v -1.905963 2.211550 -1.767483
v -1.819039 2.077291 -1.582449
v -1.702834 1.816678 -2.159941
v -1.515381 1.694139 -2.344777
v -1.110269 2.524851 -1.994297
v -1.184099 2.199943 -2.495087
v -1.162125 2.089233 -2.688829
v -1.012411 2.772268 -2.208797
v -1.163354 2.717422 -2.548184
v -1.264515 2.567489 -2.516264
v -1.694940 2.344957 -1.763360
v -1.677673 1.708015 -2.356524
v -1.917194 2.177814 -2.061632
v -1.865246 2.181288 -1.642700
v -1.780424 2.039954 -1.729759
v -1.224311 1.909638 -2.532384
v -1.611664 2.170732 -1.653837
v -1.051365 2.561840 -2.217757
v -1.155778 2.477122 -2.704456
v -0.950035 2.690839 -2.171628
v -1.099342 2.772859 -2.292397
v -1.696959 2.257637 -2.237248
v -1.209716 2.676510 -2.080737
v -1.417487 2.486653 -1.866030
v -1.363848 2.393909 -1.800362
v -1.116823 2.633339 -2.024647
v -1.659743 2.254509 -1.656970
v -1.405550 2.179964 -2.512209
v -1.337103 1.759978 -2.570100
v -1.548969 1.824160 -2.496144
v -1.221125 2.064692 -2.707514
v -1.749633 2.332321 -1.950667
v -1.276194 2.666542 -2.256427
v -1.486435 2.494870 -2.199108
v -1.475408 2.506716 -1.978528
v -1.115438 2.687423 -2.478937
v -1.131767 2.480017 -2.436031
v -1.155282 2.405355 -2.631257
v -1.016420 2.700174 -2.335784
v -1.237756 2.294979 -2.171042
v -1.580261 2.045034 -1.946606
v -1.368206 1.948861 -2.215208
v -1.371986 2.287948 -1.871068
v -1.837620 1.965429 -1.973705
v -1.952225 2.088560 -1.935287
v -1.835000 1.907547 -2.192221
v -1.911214 2.064069 -1.740442
v -1.869459 2.024603 -1.728488
v -1.172773 2.442625 -2.049815
v -1.034975 2.764174 -2.342638
v -1.727139 2.342096 -1.842176
v -1.240078 2.335099 -2.643745
v -1.677454 2.309085 -1.702845
v -1.160257 2.665015 -2.047300
v -1.091494 2.587239 -1.998790
v -1.636343 2.204470 -1.627465
v -1.624460 2.056957 -2.395815
v -1.513797 1.684343 -2.471208
v -1.213935 1.906077 -2.664490
v -1.743173 2.328611 -2.084113
v -1.278509 2.659899 -2.383982
v -1.248905 2.673010 -2.151910
v -1.139025 2.595271 -2.626912
v -1.164109 2.284673 -2.589903
v -1.009560 2.639409 -2.303804
v -1.244997 2.078269 -2.351143
v -1.546692 1.855357 -2.156228
v -1.600209 2.136841 -1.763519
v -1.779020 1.830902 -2.192630
v -1.916906 2.033123 -2.124686
v -1.945670 2.124238 -1.743886
vn -0.6843 0.4070 -0.6050
vn -0.4445 0.7531 0.4850
vn -0.2962 -0.8601 0.4154
vn 0.3678 -0.7797 0.5067
vn 0.0559 0.5540 -0.8307
vn -0.1515 0.9150 0.3740
vn 0.9710 -0.1774 0.1600
vn 0.8438 -0.4992 0.1970
vn -0.7612 -0.2726 -0.5885
vn -0.8399 0.5422 -0.0265
vn -0.4444 0.1804 0.8775
vn 0.0888 -0.8776 0.4712
vn 0.6341 -0.7202 0.2813
vn 0.6813 -0.3757 0.6283
vn 0.9181 -0.3884 0.0788
vn 0.4566 0.0477 -0.8884
vn 0.7727 0.6190 0.1407
vn -0.0621 0.9484 -0.3109
vn -0.6972 0.4416 -0.5647
vn -0.2906 0.8522 0.4350
vn 0.0985 0.6149 0.7824
vn -0.4771 -0.1024 -0.8729
vn -0.5686 0.8226 0.0060
vn 0.9372 -0.1387 -0.3200
vn 0.6929 -0.5516 0.4645
vn -0.7430 -0.6637 0.0866
vn -0.7469 0.0654 -0.6617
vn -0.7558 0.6233 0.2004
vn -0.4827 -0.4134 0.7721
vn -0.1835 -0.8266 0.5321
vn 0.1283 -0.9607 0.2463
vn 0.7669 -0.4061 0.4969
vn 0.9685 -0.1712 0.1807
vn 0.6038 -0.2553 -0.7552
vn 0.2809 0.9095 0.3065
vn 0.4840 0.7347 -0.4753
vn -0.7847 0.3630 -0.5025
vn -0.3260 0.8355 0.4424
vn -0.4016 -0.9030 -0.1526
vn -0.8364 0.4634 -0.2928
vn -0.3814 0.5042 0.7748
vn 0.2630 -0.9186 0.2950
vn 0.8912 -0.4046 0.2051
vn 0.5859 -0.5110 0.6289
vn 0.8099 -0.5859 -0.0266
vn 0.4998 0.2208 -0.8375
vn 0.9024 0.2514 0.3500
vn -0.1385 0.9898 -0.0327
vn -0.6030 0.5111 -0.6125
vn -0.2382 0.8685 0.4346
vn -0.0485 0.7342 0.6772
vn 0.2893 0.4106 0.8647
vn 0.2255 0.6402 0.7343
vn -0.0285 0.5618 0.8268
vn -0.6468 0.2332 -0.7261
vn 0.0802 -0.6742 -0.7342
vn -0.5024 -0.1151 -0.8570
vn 0.1588 -0.2040 -0.9660
vn -0.5818 0.8130 -0.0218
vn -0.5708 0.8210 0.0126
vn -0.6603 0.7155 -0.2281
vn -0.5116 0.8518 0.1127
vn 0.8435 0.3212 -0.4305
vn 0.9562 -0.2607 -0.1329
vn 0.9968 -0.0629 -0.0496
vn 0.8750 0.0595 -0.4804
vn 0.8495 -0.4443 0.2846
vn 0.4623 -0.7109 0.5301
vn 0.6827 -0.4959 0.5367
vn 0.6847 -0.6388 0.3509
vn -0.4975 -0.8204 0.2820
vn -0.9299 -0.3667 0.0290
vn -0.8383 -0.5413 -0.0641
vn -0.7843 -0.5394 0.3064
vn -0.4717 -0.8444 0.2538
vn 0.7635 -0.6119 0.2067
vn 0.5493 0.7318 -0.4034
vn -0.5332 0.8400 0.1002
vn -0.7155 0.1748 -0.6764
vn -0.1058 0.6978 0.7085
vn 0.0342 0.7701 0.6370
vn 0.4105 0.4103 0.8143
vn 0.0951 0.3221 0.9419
vn -0.5658 0.2583 -0.7831
vn -0.1374 -0.8414 -0.5226
vn 0.2241 -0.4991 -0.8371
vn -0.6144 0.7499 -0.2453
vn -0.6907 0.6894 -0.2184
vn -0.4959 0.8590 0.1273
vn 0.6266 0.4109 -0.6622
vn 0.9942 -0.0909 0.0573
vn 0.8890 -0.2954 -0.3500
vn 0.8904 -0.2961 0.3456
vn 0.3566 -0.6770 0.6438
vn 0.5540 -0.7531 0.3548
vn -0.5919 -0.7682 0.2439
vn -0.9167 -0.3690 -0.1536
vn -0.9129 -0.0873 0.3988
vt 0.776092 0.320620
vt 0.785971 0.313933
vt 0.759994 0.382126
vt 0.753217 0.383701
vt 0.741672 0.420251
vt 0.732431 0.419810
vt 0.775426 0.385678
vt 0.759657 0.416764
vt 0.798910 0.320239
vt 0.189482 0.098803
vt 0.185020 0.180440
vt 0.121919 0.191602
vt 0.124578 0.089509
vt 0.087894 0.207475
vt 0.093810 0.087894
vt 0.134691 0.264943
vt 0.103107 0.275795
vt 0.191537 0.241875
vt 0.187472 0.288979
vt 0.171719 0.312176
vt 0.134204 0.319413
vt 0.140244 0.309764
vt 0.101368 0.324559
vt 0.104731 0.317972
vt 0.121870 0.332040
vt 0.098333 0.342245
vt 0.149466 0.324807
vt 0.593566 0.239498
vt 0.666746 0.312005
vt 0.655131 0.341387
vt 0.582749 0.266248
vt 0.646139 0.361185
vt 0.573689 0.282733
vt 0.713667 0.382202
vt 0.697225 0.398006
vt 0.726356 0.345626
vt 0.371531 0.276988
vt 0.329936 0.358834
vt 0.266814 0.319049
vt 0.311160 0.276740
vt 0.234190 0.302632
vt 0.273545 0.289233
vt 0.208900 0.345616
vt 0.202281 0.311982
vt 0.247410 0.434561
vt 0.800633 0.627538
vt 0.805880 0.618461
vt 0.806801 0.720931
vt 0.801751 0.733983
vt 0.807973 0.784334
vt 0.802343 0.799861
vt 0.814472 0.708754
vt 0.813927 0.762588
vt 0.812395 0.611544
vt 0.591713 0.611544
vt 0.598099 0.612646
vt 0.600881 0.683589
vt 0.595903 0.685252
vt 0.597772 0.788153
vt 0.592271 0.796715
vt 0.607230 0.683829
vt 0.604419 0.781227
vt 0.602719 0.625912
vt 0.573689 0.645628
vt 0.584315 0.621131
vt 0.589408 0.692572
vt 0.575901 0.705673
vt 0.585648 0.805687
vt 0.573689 0.811399
vt 0.783019 0.643867
vt 0.794504 0.637093
vt 0.796281 0.743532
vt 0.783019 0.742582
vt 0.796455 0.806820
vt 0.784812 0.794076
vt 0.821791 0.202485
vt 0.784191 0.229092
vt 0.765376 0.173984
vt 0.829738 0.159605
vt 0.727936 0.098000
vt 0.825842 0.087894
vt 0.701351 0.221908
vt 0.640893 0.147973
vt 0.742549 0.257104
vt 0.838447 0.210583
vt 0.838311 0.202734
vt 0.849953 0.173844
vt 0.852689 0.196900
vt 0.863631 0.120169
vt 0.890051 0.164712
vt 0.384316 0.177793
vt 0.397901 0.232998
vt 0.339059 0.261923
vt 0.333714 0.230357
vt 0.299176 0.277171
vt 0.301666 0.254628
vt 0.675260 0.272158
vt 0.603467 0.199390
vt 0.735852 0.300787
vt 0.165262 0.366355
vt 0.181266 0.316999
vt 0.137453 0.391062
vt 0.184660 0.476381
vt 0.152195 0.511773
vt 0.108692 0.407842
vt 0.087894 0.415463
vt 0.125028 0.532044
vt 0.105625 0.542939
vt 0.207960 0.307529
vt 0.235832 0.286279
vt 0.252077 0.268066
vt 0.258250 0.242658
vt 0.194270 0.271103
vt 0.142161 0.296225
vt 0.104280 0.305568
vt 0.270873 0.191581
vt 0.293603 0.121520
vt 0.855098 0.255954
vt 0.824785 0.248287
vt 0.843665 0.338360
vt 0.912106 0.254460
vt 0.911231 0.349347
vt 0.826128 0.399726
vt 0.810150 0.431853
vt 0.910921 0.407998
vt 0.912106 0.435755
vt 0.818996 0.244139
vt 0.805703 0.251646
vt 0.778153 0.281523
vt 0.758402 0.339164
vt 0.740958 0.388215
vt 0.716234 0.413868
s 1
usemtl Material
f 26/1/26 71/2/71 75/3/75 74/4/74
f 74/4/74 75/3/75 29/5/29 11/6/11
f 75/3/75 42/7/42 4/8/4 29/5/29
f 71/2/71 12/9/12 42/7/42 75/3/75
f 25/10/25 67/11/67 76/12/76 70/13/70
f 70/13/70 76/12/76 32/14/32 14/15/14
f 76/12/76 45/16/45 8/17/8 32/14/32
f 67/11/67 15/18/15 45/16/45 76/12/76
f 24/19/24 63/20/63 77/21/77 66/22/66
f 66/22/66 77/21/77 35/23/35 17/24/17
f 77/21/77 48/25/48 6/26/6 35/23/35
f 63/20/63 18/27/18 48/25/48 77/21/77
f 23/28/23 59/29/59 78/30/78 62/31/62
f 62/31/62 78/30/78 38/32/38 20/33/20
f 78/30/78 28/34/28 2/35/2 38/32/38
f 59/29/59 10/36/10 28/34/28 78/30/78
f 22/37/22 55/38/55 79/39/79 58/40/58
f 58/40/58 79/39/79 46/41/46 16/42/16
f 79/39/79 37/43/37 5/44/5 46/41/46
f 55/38/55 19/45/19 37/43/37 79/39/79
f 21/46/21 51/47/51 80/48/80 54/49/54
f 54/49/54 80/48/80 41/50/41 11/51/11
f 80/48/80 38/52/38 2/53/2 41/50/41
f 51/47/51 20/54/20 38/52/38 80/48/80
f 17/55/17 35/56/35 81/57/81 53/58/53
f 53/58/53 81/57/81 51/59/51 21/60/21
f 81/57/81 50/61/50 20/62/20 51/59/51
f 35/56/35 6/63/6 50/61/50 81/57/81
f 8/64/8 47/65/47 82/66/82 32/67/32
f 32/67/32 82/66/82 52/68/52 14/69/14
f 82/66/82 53/58/53 21/60/21 52/68/52
f 47/65/47 17/55/17 53/58/53 82/66/82
f 14/70/14 52/71/52 83/72/83 44/73/44
f 44/73/44 83/72/83 29/74/29 4/75/4
f 83/72/83 54/49/54 11/51/11 29/74/29
f 52/71/52 21/46/21 54/49/54 83/72/83
f 9/76/9 27/77/27 84/78/84 57/79/57
f 57/79/57 84/78/84 55/80/55 22/81/22
f 84/78/84 49/82/49 19/83/19 55/80/55
f 27/77/27 1/84/1 49/82/49 84/78/84
f 3/85/3 39/86/39 85/87/85 31/88/31
f 31/88/31 85/87/85 56/89/56 13/90/13
f 85/87/85 57/79/57 22/81/22 56/89/56
f 39/86/39 9/76/9 57/79/57 85/87/85
f 13/91/13 56/92/56 86/93/86 43/94/43
f 43/94/43 86/93/86 34/95/34 7/96/7
f 86/93/86 58/40/58 16/42/16 34/95/34
f 56/92/56 22/37/22 58/40/58 86/93/86
f 19/83/19 49/82/49 87/97/87 61/98/61
f 61/98/61 87/97/87 59/29/59 23/28/23
f 87/97/87 40/99/40 10/36/10 59/29/59
f 49/82/49 1/84/1 40/99/40 87/97/87
f 5/44/5 37/43/37 88/100/88 36/101/36
f 36/101/36 88/100/88 60/102/60 18/27/18
f 88/100/88 61/103/61 23/104/23 60/102/60
f 37/43/37 19/45/19 61/103/61 88/100/88
f 18/27/18 60/102/60 89/105/89 48/25/48
f 48/25/48 89/105/89 50/106/50 6/26/6
f 89/105/89 62/107/62 20/108/20 50/106/50
f 60/102/60 23/104/23 62/107/62 89/105/89
f 16/42/16 46/41/46 90/109/90 65/110/65
f 65/110/65 90/109/90 63/20/63 24/19/24
f 90/109/90 36/101/36 18/27/18 63/20/63
f 46/41/46 5/44/5 36/101/36 90/109/90
f 7/96/7 34/95/34 91/111/91 33/112/33
f 33/112/33 91/111/91 64/113/64 15/18/15
f 91/111/91 65/110/65 24/19/24 64/113/64
f 34/95/34 16/42/16 65/110/65 91/111/91
f 15/18/15 64/113/64 92/114/92 45/16/45
f 45/16/45 92/114/92 47/115/47 8/17/8
f 92/114/92 66/22/66 17/24/17 47/115/47
f 64/113/64 24/19/24 66/22/66 92/114/92
f 13/91/13 43/94/43 93/116/93 69/117/69
f 69/117/69 93/116/93 67/11/67 25/10/25
f 93/116/93 33/112/33 15/18/15 67/11/67
f 43/94/43 7/96/7 33/112/33 93/116/93
f 3/85/3 31/88/31 94/118/94 30/119/30
f 30/119/30 94/118/94 68/120/68 12/9/12
f 94/118/94 69/121/69 25/122/25 68/120/68
f 31/88/31 13/90/13 69/121/69 94/118/94
f 12/9/12 68/120/68 95/123/95 42/7/42
f 42/7/42 95/123/95 44/124/44 4/8/4
f 95/123/95 70/125/70 14/126/14 44/124/44
f 68/120/68 25/122/25 70/125/70 95/123/95
f 9/76/9 39/86/39 96/127/96 73/128/73
f 73/128/73 96/127/96 71/2/71 26/1/26
f 96/127/96 30/119/30 12/9/12 71/2/71
f 39/86/39 3/85/3 30/119/30 96/127/96
f 1/84/1 27/77/27 97/129/97 40/99/40
f 40/99/40 97/129/97 72/130/72 10/36/10
f 97/129/97 73/128/73 26/1/26 72/130/72
f 27/77/27 9/76/9 73/128/73 97/129/97
f 10/36/10 72/130/72 98/131/98 28/34/28
f 28/34/28 98/131/98 41/132/41 2/35/2
f 98/131/98 74/4/74 11/6/11 41/132/41
f 72/130/72 26/1/26 74/4/74 98/131/98
