# Blender 4.3.2
# www.blender.org
mtllib Grot_Platform_3.mtl
o Grot_Platform_003
v 2.197066 0.162531 -3.122787
v 1.945732 1.690330 -3.337284
v 1.639278 -0.992093 -2.810905
v 1.650841 1.619912 -3.262579
v 2.938827 0.256352 -1.926626
v 2.773766 1.728074 -1.961998
v 2.168483 -0.904422 -1.978218
v 2.511076 1.644378 -1.878555
v 1.864352 -0.978168 -2.893902
v 2.071993 0.982896 -3.371073
v 1.726865 1.707894 -3.388929
v 1.759986 0.473112 -3.102396
v 1.728230 -1.078903 -2.313389
v 2.017188 1.829971 -2.568295
v 2.432870 0.554318 -2.035821
v 2.506859 -0.879179 -1.875497
v 2.704273 1.731204 -1.802239
v 2.933964 1.073784 -1.967429
v 2.538934 0.411178 -2.467321
v 2.339105 1.839629 -2.642378
v 2.171979 1.947552 -2.597358
v 2.059359 -1.278346 -2.243678
v 2.455498 1.350486 -2.636305
v 2.728982 0.541361 -1.925201
v 1.946109 0.871373 -2.529114
v 1.874248 0.441493 -3.289359
v 2.064052 -0.394919 -3.043188
v 1.982485 1.420173 -3.392118
v 1.645086 1.686906 -3.356387
v 1.701982 -0.401404 -2.948991
v 1.624277 -1.088285 -2.602781
v 2.316525 1.783178 -2.115079
v 2.290524 -0.307686 -2.021961
v 2.284624 -1.064040 -1.911520
v 2.766525 1.749106 -1.861885
v 2.993248 0.634859 -1.934667
v 2.806036 0.367367 -2.105550
v 2.088415 1.798805 -3.078602
v 1.699879 -1.159981 -2.832529
v 2.160792 0.533557 -3.280508
v 1.838336 1.718362 -3.390117
v 1.694598 1.218817 -3.237531
v 1.954757 -1.033536 -2.082781
v 1.756516 1.772253 -3.017365
v 2.512669 1.268710 -1.928216
v 2.796179 -0.294714 -1.870155
v 2.614749 1.707886 -1.792977
v 2.855613 1.483150 -1.951195
v 2.328174 0.308353 -2.877575
v 2.606949 1.819494 -2.211493
v 2.264400 1.928071 -2.620764
v 2.079441 1.938174 -2.577898
v 2.481415 1.923175 -2.104121
v 1.881729 1.918285 -3.080400
v 2.344150 -0.489768 -2.337504
v 1.823150 -1.497455 -2.239741
v 1.915099 -1.248552 -2.576173
v 2.284540 -1.191633 -1.990590
v 2.227733 1.232699 -3.076042
v 2.744640 1.286048 -2.231027
v 2.543311 0.997366 -2.573079
v 2.391409 1.635247 -2.653865
v 2.888536 0.783416 -1.897620
v 2.593231 0.461929 -1.953819
v 2.648785 -0.242396 -1.906483
v 2.768816 1.246598 -1.816223
v 2.188872 0.762087 -2.237108
v 1.801964 0.715393 -2.850389
v 1.813200 -0.137182 -2.429654
v 1.997340 1.518489 -2.565336
v 1.796683 0.366210 -3.217579
v 1.961991 0.681040 -3.393114
v 1.883374 -0.356343 -3.120869
v 1.773160 1.184680 -3.421304
v 1.700630 1.152827 -3.368479
v 2.270234 1.432074 -2.186699
v 2.862305 1.353491 -1.835992
v 2.152985 1.561862 -3.090712
v 2.592726 -0.459178 -2.028756
v 1.991767 1.898216 -3.082295
v 2.552324 1.908542 -2.155158
v 2.394922 1.908919 -2.081749
v 1.788011 1.905058 -3.062702
v 2.164501 -0.517537 -2.715122
v 1.705071 -1.456855 -2.545185
v 2.045185 -1.401046 -2.009491
v 2.320144 0.859536 -3.007863
v 2.831524 0.919322 -2.178395
v 2.667120 1.599363 -2.237186
v 2.886373 0.172899 -1.872429
v 2.464577 -0.383960 -1.945455
v 2.664366 1.210852 -1.824354
v 2.044497 -0.190211 -2.182052
v 1.702200 -0.244743 -2.721208
v 1.790714 1.403743 -2.954401
v 1.767639 -0.493934 -3.044321
v 2.020353 0.057670 -3.261606
v 1.863953 1.286297 -3.465941
vn 0.8531 -0.2115 -0.4769
vn 0.6068 0.4033 -0.6850
vn -0.9758 -0.0231 -0.2175
vn -0.9891 0.0047 0.1474
vn 0.9802 -0.1982 -0.0027
vn 0.9085 0.3901 -0.1498
vn -0.4418 0.1152 0.8897
vn -0.7010 0.0471 0.7116
vn 0.5421 -0.4634 -0.7010
vn 0.6928 0.0495 -0.7195
vn -0.3388 0.5753 -0.7445
vn -0.9992 -0.0127 -0.0371
vn -0.8946 0.0021 0.4469
vn -0.8355 0.2323 0.4980
vn -0.5483 0.0263 0.8358
vn 0.8817 -0.4587 0.1104
vn 0.2359 0.6153 0.7522
vn 0.9937 0.1104 -0.0181
vn 0.8420 -0.1708 -0.5118
vn 0.7587 0.4657 -0.4555
vn 0.0330 0.9992 -0.0231
vn 0.7392 -0.5527 -0.3849
vn 0.8429 0.1484 -0.5172
vn -0.1300 -0.0407 0.9907
vn -0.8595 0.1057 0.5001
vn -0.4388 -0.2028 -0.8754
vn 0.7552 -0.3327 -0.5648
vn 0.6665 0.1607 -0.7280
vn -0.9628 0.2430 -0.1180
vn -0.9812 0.0424 -0.1884
vn -0.9957 -0.0797 0.0467
vn -0.7814 0.1865 0.5955
vn -0.4470 0.1228 0.8861
vn -0.0283 -0.2160 0.9760
vn 0.8139 0.5213 0.2567
vn 0.9995 -0.0201 0.0246
vn 0.7571 -0.1778 -0.6286
vn 0.7320 0.4542 -0.5078
vn -0.6840 -0.4430 -0.5795
vn 0.7759 -0.0816 -0.6256
vn 0.1019 0.5855 -0.8042
vn -0.9912 -0.0755 0.1089
vn -0.6395 0.0711 0.7655
vn -0.9166 0.1899 0.3517
vn -0.6491 -0.0626 0.7581
vn 0.9370 -0.3417 0.0721
vn -0.3067 0.4050 0.8613
vn 0.9662 0.2437 -0.0838
vn 0.8975 -0.1664 -0.4083
vn 0.7841 0.5056 -0.3598
vn 0.4345 0.8619 -0.2614
vn -0.5034 0.8122 0.2948
vn 0.0792 0.9697 0.2311
vn -0.0686 0.9645 -0.2551
vn 0.8235 -0.3005 -0.4812
vn -0.2042 -0.9482 0.2433
vn 0.7102 -0.5561 -0.4317
vn 0.7937 -0.6075 0.0330
vn 0.8453 0.1344 -0.5172
vn 0.8410 0.1525 -0.5192
vn 0.8503 0.0176 -0.5261
vn 0.8346 0.2156 -0.5069
vn 0.3602 0.0112 0.9328
vn -0.3309 -0.0147 0.9435
vn -0.2299 0.0669 0.9709
vn 0.1369 -0.0678 0.9883
vn -0.6973 0.0822 0.7120
vn -0.9603 0.0649 0.2712
vn -0.8755 0.1482 0.4599
vn -0.8535 0.0465 0.5190
vn -0.8342 -0.1167 -0.5390
vn 0.0364 -0.1553 -0.9872
vn -0.0954 -0.2940 -0.9510
vn -0.4298 -0.1003 -0.8973
vn -0.9496 -0.1253 -0.2873
vn -0.7724 0.0085 0.6351
vn 0.8374 0.0871 0.5396
vn 0.8285 0.2026 -0.5221
vn 0.7530 -0.3085 -0.5812
vn 0.3439 0.8549 -0.3885
vn 0.5120 0.8572 -0.0560
vn -0.4296 0.7811 0.4531
vn -0.7084 0.7047 0.0391
vn 0.8648 -0.3158 -0.3903
vn -0.7942 -0.6067 -0.0359
vn 0.3469 -0.8914 0.2916
vn 0.8783 0.0179 -0.4778
vn 0.8309 0.0189 -0.5561
vn 0.8377 0.2287 -0.4959
vn 0.5088 -0.0664 0.8583
vn -0.3138 0.0981 0.9444
vn -0.2938 -0.1016 0.9504
vn -0.6344 0.1475 0.7588
vn -0.9861 0.1080 0.1261
vn -0.9217 0.0068 0.3879
vn -0.6432 -0.1604 -0.7487
vn 0.2873 -0.2664 -0.9200
vn 0.0270 0.0208 -0.9994
vt 0.824368 0.306453
vt 0.851509 0.303616
vt 0.835794 0.424579
vt 0.814475 0.419229
vt 0.826338 0.498588
vt 0.802957 0.491099
vt 0.844816 0.434174
vt 0.835028 0.489808
vt 0.864132 0.322827
vt 0.048621 0.392981
vt 0.137614 0.380807
vt 0.157245 0.478214
vt 0.056598 0.496226
vt 0.173474 0.531115
vt 0.060315 0.545157
vt 0.237327 0.445508
vt 0.244423 0.500756
vt 0.213802 0.356136
vt 0.287055 0.352364
vt 0.319672 0.367698
vt 0.331406 0.425672
vt 0.306041 0.424267
vt 0.330983 0.488293
vt 0.310946 0.494451
vt 0.341138 0.440476
vt 0.340107 0.485069
vt 0.338697 0.390114
vt 0.608512 0.348491
vt 0.684499 0.365397
vt 0.689378 0.417417
vt 0.612620 0.394077
vt 0.695107 0.456546
vt 0.616442 0.427550
vt 0.746976 0.422181
vt 0.743817 0.461331
vt 0.743035 0.355023
vt 0.239684 0.090412
vt 0.351133 0.167798
vt 0.321367 0.238013
vt 0.258063 0.156365
vt 0.312904 0.282515
vt 0.280818 0.213431
vt 0.359987 0.321512
vt 0.329251 0.327438
vt 0.445564 0.293734
vt 0.793341 0.766913
vt 0.779428 0.791164
vt 0.781489 0.704112
vt 0.795025 0.677424
vt 0.770666 0.653235
vt 0.787223 0.624145
vt 0.762527 0.728814
vt 0.756519 0.682388
vt 0.762339 0.811194
vt 0.633153 0.616364
vt 0.647181 0.601717
vt 0.644550 0.675291
vt 0.633608 0.691687
vt 0.644351 0.762946
vt 0.631531 0.787633
vt 0.657515 0.659549
vt 0.659276 0.741683
vt 0.655966 0.601505
vt 0.600641 0.665521
vt 0.618204 0.639138
vt 0.621843 0.711838
vt 0.602104 0.728680
vt 0.618342 0.812347
vt 0.600641 0.826609
vt 0.822765 0.726875
vt 0.805927 0.743242
vt 0.806941 0.656824
vt 0.822765 0.646242
vt 0.804992 0.601786
vt 0.818588 0.601505
vt 0.861024 0.128179
vt 0.795028 0.176036
vt 0.769682 0.141610
vt 0.862721 0.086587
vt 0.715968 0.112983
vt 0.831552 0.048621
vt 0.694946 0.231027
vt 0.625700 0.211978
vt 0.740544 0.232407
vt 0.905301 0.143206
vt 0.896709 0.125547
vt 0.908841 0.100751
vt 0.916437 0.133926
vt 0.908172 0.064231
vt 0.951379 0.119132
vt 0.097747 0.084938
vt 0.168611 0.048621
vt 0.216085 0.103646
vt 0.162297 0.127794
vt 0.247891 0.169470
vt 0.209055 0.171922
vt 0.675781 0.305198
vt 0.600641 0.290419
vt 0.737440 0.285858
vt 0.368425 0.379356
vt 0.334510 0.351738
vt 0.384080 0.430765
vt 0.466199 0.401561
vt 0.487687 0.476500
vt 0.390452 0.487363
vt 0.395205 0.532958
vt 0.496453 0.536536
vt 0.503399 0.580581
vt 0.320322 0.320392
vt 0.283082 0.280170
vt 0.247951 0.254806
vt 0.203679 0.249763
vt 0.257033 0.345821
vt 0.279155 0.428693
vt 0.281619 0.501537
vt 0.128534 0.243485
vt 0.048621 0.228466
vt 0.906393 0.221075
vt 0.891660 0.201989
vt 0.886648 0.359405
vt 0.941635 0.239940
vt 0.935215 0.381722
vt 0.880415 0.454688
vt 0.870667 0.504262
vt 0.945809 0.462338
vt 0.951379 0.501791
vt 0.873343 0.188792
vt 0.840787 0.197884
vt 0.793121 0.239577
vt 0.787551 0.329631
vt 0.785170 0.420592
vt 0.772241 0.478502
s 1
usemtl Material
f 26/1/26 71/2/71 75/3/75 74/4/74
f 74/4/74 75/3/75 29/5/29 11/6/11
f 75/3/75 42/7/42 4/8/4 29/5/29
f 71/2/71 12/9/12 42/7/42 75/3/75
f 25/10/25 67/11/67 76/12/76 70/13/70
f 70/13/70 76/12/76 32/14/32 14/15/14
f 76/12/76 45/16/45 8/17/8 32/14/32
f 67/11/67 15/18/15 45/16/45 76/12/76
f 24/19/24 63/20/63 77/21/77 66/22/66
f 66/22/66 77/21/77 35/23/35 17/24/17
f 77/21/77 48/25/48 6/26/6 35/23/35
f 63/20/63 18/27/18 48/25/48 77/21/77
f 23/28/23 59/29/59 78/30/78 62/31/62
f 62/31/62 78/30/78 38/32/38 20/33/20
f 78/30/78 28/34/28 2/35/2 38/32/38
f 59/29/59 10/36/10 28/34/28 78/30/78
f 22/37/22 55/38/55 79/39/79 58/40/58
f 58/40/58 79/39/79 46/41/46 16/42/16
f 79/39/79 37/43/37 5/44/5 46/41/46
f 55/38/55 19/45/19 37/43/37 79/39/79
f 21/46/21 51/47/51 80/48/80 54/49/54
f 54/49/54 80/48/80 41/50/41 11/51/11
f 80/48/80 38/52/38 2/53/2 41/50/41
f 51/47/51 20/54/20 38/52/38 80/48/80
f 17/55/17 35/56/35 81/57/81 53/58/53
f 53/58/53 81/57/81 51/59/51 21/60/21
f 81/57/81 50/61/50 20/62/20 51/59/51
f 35/56/35 6/63/6 50/61/50 81/57/81
f 8/64/8 47/65/47 82/66/82 32/67/32
f 32/67/32 82/66/82 52/68/52 14/69/14
f 82/66/82 53/58/53 21/60/21 52/68/52
f 47/65/47 17/55/17 53/58/53 82/66/82
f 14/70/14 52/71/52 83/72/83 44/73/44
f 44/73/44 83/72/83 29/74/29 4/75/4
f 83/72/83 54/49/54 11/51/11 29/74/29
f 52/71/52 21/46/21 54/49/54 83/72/83
f 9/76/9 27/77/27 84/78/84 57/79/57
f 57/79/57 84/78/84 55/80/55 22/81/22
f 84/78/84 49/82/49 19/83/19 55/80/55
f 27/77/27 1/84/1 49/82/49 84/78/84
f 3/85/3 39/86/39 85/87/85 31/88/31
f 31/88/31 85/87/85 56/89/56 13/90/13
f 85/87/85 57/79/57 22/81/22 56/89/56
f 39/86/39 9/76/9 57/79/57 85/87/85
f 13/91/13 56/92/56 86/93/86 43/94/43
f 43/94/43 86/93/86 34/95/34 7/96/7
f 86/93/86 58/40/58 16/42/16 34/95/34
f 56/92/56 22/37/22 58/40/58 86/93/86
f 19/83/19 49/82/49 87/97/87 61/98/61
f 61/98/61 87/97/87 59/29/59 23/28/23
f 87/97/87 40/99/40 10/36/10 59/29/59
f 49/82/49 1/84/1 40/99/40 87/97/87
f 5/44/5 37/43/37 88/100/88 36/101/36
f 36/101/36 88/100/88 60/102/60 18/27/18
f 88/100/88 61/103/61 23/104/23 60/102/60
f 37/43/37 19/45/19 61/103/61 88/100/88
f 18/27/18 60/102/60 89/105/89 48/25/48
f 48/25/48 89/105/89 50/106/50 6/26/6
f 89/105/89 62/107/62 20/108/20 50/106/50
f 60/102/60 23/104/23 62/107/62 89/105/89
f 16/42/16 46/41/46 90/109/90 65/110/65
f 65/110/65 90/109/90 63/20/63 24/19/24
f 90/109/90 36/101/36 18/27/18 63/20/63
f 46/41/46 5/44/5 36/101/36 90/109/90
f 7/96/7 34/95/34 91/111/91 33/112/33
f 33/112/33 91/111/91 64/113/64 15/18/15
f 91/111/91 65/110/65 24/19/24 64/113/64
f 34/95/34 16/42/16 65/110/65 91/111/91
f 15/18/15 64/113/64 92/114/92 45/16/45
f 45/16/45 92/114/92 47/115/47 8/17/8
f 92/114/92 66/22/66 17/24/17 47/115/47
f 64/113/64 24/19/24 66/22/66 92/114/92
f 13/91/13 43/94/43 93/116/93 69/117/69
f 69/117/69 93/116/93 67/11/67 25/10/25
f 93/116/93 33/112/33 15/18/15 67/11/67
f 43/94/43 7/96/7 33/112/33 93/116/93
f 3/85/3 31/88/31 94/118/94 30/119/30
f 30/119/30 94/118/94 68/120/68 12/9/12
f 94/118/94 69/121/69 25/122/25 68/120/68
f 31/88/31 13/90/13 69/121/69 94/118/94
f 12/9/12 68/120/68 95/123/95 42/7/42
f 42/7/42 95/123/95 44/124/44 4/8/4
f 95/123/95 70/125/70 14/126/14 44/124/44
f 68/120/68 25/122/25 70/125/70 95/123/95
f 9/76/9 39/86/39 96/127/96 73/128/73
f 73/128/73 96/127/96 71/2/71 26/1/26
f 96/127/96 30/119/30 12/9/12 71/2/71
f 39/86/39 3/85/3 30/119/30 96/127/96
f 1/84/1 27/77/27 97/129/97 40/99/40
f 40/99/40 97/129/97 72/130/72 10/36/10
f 97/129/97 73/128/73 26/1/26 72/130/72
f 27/77/27 9/76/9 73/128/73 97/129/97
f 10/36/10 72/130/72 98/131/98 28/34/28
f 28/34/28 98/131/98 41/132/41 2/35/2
f 98/131/98 74/4/74 11/6/11 41/132/41
f 72/130/72 26/1/26 74/4/74 98/131/98
