# Blender 4.3.2
# www.blender.org
mtllib Grot_Platform_5.mtl
o Grot_Platform_005
v 2.318157 2.196729 -2.740188
v 2.320721 2.282768 -2.251094
v 2.117116 1.749042 -2.850595
v 2.236800 2.122181 -2.167892
v 1.648168 2.677889 -3.172438
v 1.551576 2.812321 -2.755410
v 1.651022 2.094124 -3.151014
v 1.467370 2.667186 -2.688757
v 2.200420 1.863879 -2.919749
v 2.406158 2.239472 -2.461743
v 2.322453 2.167225 -2.157027
v 2.224432 2.015819 -2.504993
v 1.816405 1.814850 -2.977709
v 1.828863 2.391388 -2.357661
v 1.628771 2.450506 -2.895316
v 1.630257 2.282195 -3.287351
v 1.439452 2.786702 -2.751983
v 1.620048 2.796742 -2.970356
v 1.929178 2.456426 -2.905883
v 1.920098 2.556977 -2.465558
v 1.861128 2.488575 -2.383665
v 1.830513 1.962877 -3.159872
v 1.964332 2.544219 -2.626470
v 1.599620 2.611114 -3.025995
v 1.856799 2.211154 -2.564494
v 2.362026 2.058844 -2.528035
v 2.285362 2.047497 -2.834328
v 2.378624 2.257496 -2.321071
v 2.291701 2.123237 -2.136036
v 2.175495 1.862624 -2.713528
v 1.988042 1.740084 -2.898364
v 1.582931 2.570797 -2.547884
v 1.656761 2.245889 -3.048675
v 1.634787 2.135179 -3.242417
v 1.485072 2.818214 -2.762385
v 1.636016 2.763368 -3.101772
v 1.737177 2.613435 -3.069851
v 2.167602 2.390903 -2.316947
v 2.150334 1.753960 -2.910111
v 2.389856 2.223760 -2.615219
v 2.337907 2.227234 -2.196287
v 2.253085 2.085900 -2.283346
v 1.696973 1.955583 -3.085971
v 2.084325 2.216677 -2.207425
v 1.524026 2.607785 -2.771345
v 1.628440 2.523068 -3.258043
v 1.422696 2.736784 -2.725215
v 1.572004 2.818805 -2.845985
v 2.169621 2.303583 -2.790835
v 1.682377 2.722456 -2.634324
v 1.890149 2.532599 -2.419617
v 1.836510 2.439854 -2.353949
v 1.589485 2.679285 -2.578234
v 2.132405 2.300455 -2.210557
v 1.878211 2.225910 -3.065796
v 1.809765 1.805924 -3.123688
v 2.021631 1.870106 -3.049731
v 1.693786 2.110637 -3.261102
v 2.222294 2.378267 -2.504255
v 1.748855 2.712487 -2.810015
v 1.959097 2.540816 -2.752695
v 1.948070 2.552662 -2.532115
v 1.588100 2.733369 -3.032525
v 1.604428 2.525963 -2.989618
v 1.627943 2.451301 -3.184844
v 1.489082 2.746120 -2.889371
v 1.710417 2.340925 -2.724629
v 2.052922 2.090980 -2.500193
v 1.840867 1.994807 -2.768796
v 1.844648 2.333894 -2.424656
v 2.310282 2.011375 -2.527292
v 2.424887 2.134505 -2.488874
v 2.307662 1.953493 -2.745808
v 2.383875 2.110014 -2.294029
v 2.342120 2.070549 -2.282076
v 1.645434 2.488571 -2.603403
v 1.507636 2.810119 -2.896225
v 2.199800 2.388042 -2.395763
v 1.712740 2.381045 -3.197333
v 2.150116 2.355031 -2.256432
v 1.632918 2.710961 -2.600888
v 1.564155 2.633185 -2.552378
v 2.109005 2.250416 -2.181053
v 2.097122 2.102902 -2.949403
v 1.986459 1.730288 -3.024796
v 1.686597 1.952023 -3.218078
v 2.215835 2.374557 -2.637700
v 1.751171 2.705845 -2.937570
v 1.721566 2.718956 -2.705497
v 1.611687 2.641217 -3.180500
v 1.636770 2.330619 -3.143490
v 1.482222 2.685355 -2.857391
v 1.717659 2.124214 -2.904731
v 2.019353 1.901303 -2.709816
v 2.072870 2.182786 -2.317106
v 2.251682 1.876847 -2.746218
v 2.389568 2.079068 -2.678273
v 2.418332 2.170183 -2.297473
vn 0.6630 0.3838 -0.6427
vn 0.5115 0.7613 0.3984
vn 0.0573 -0.8997 0.4328
vn -0.4386 -0.7787 0.4487
vn 0.5145 0.4654 -0.7202
vn 0.2329 0.9450 0.2298
vn -0.9693 -0.1760 0.1717
vn -0.8257 -0.5267 0.2021
vn 0.6764 -0.0575 -0.7343
vn 0.7596 0.6484 -0.0514
vn 0.3200 0.3265 0.8894
vn -0.1700 -0.8620 0.4776
vn -0.6239 -0.7125 0.3210
vn -0.6777 -0.3681 0.6366
vn -0.9147 -0.3980 0.0698
vn 0.3338 0.1017 -0.9371
vn -0.5587 0.6633 0.4979
vn 0.3771 0.9110 -0.1669
vn 0.6867 0.4647 -0.5590
vn 0.3285 0.8598 0.3908
vn -0.1088 0.6080 0.7864
vn 0.4666 -0.1124 -0.8773
vn 0.5674 0.8234 0.0106
vn -0.9521 -0.1195 -0.2816
vn -0.6777 -0.5751 0.4582
vn 0.7577 -0.6458 0.0942
vn 0.6720 0.1839 -0.7174
vn 0.6833 0.7166 0.1397
vn -0.1766 -0.3263 0.9286
vn -0.0008 -0.7971 0.6038
vn -0.3673 -0.8613 0.3510
vn -0.7616 -0.3873 0.5196
vn -0.9670 -0.1754 0.1849
vn -0.8426 -0.2447 -0.4798
vn -0.1435 0.8988 0.4142
vn 0.4837 0.7260 -0.4888
vn 0.7834 0.3740 -0.4964
vn 0.3664 0.8384 0.4036
vn 0.5507 -0.6845 -0.4777
vn 0.7450 0.5473 -0.3814
vn 0.4124 0.5634 0.7159
vn -0.3333 -0.8861 0.3222
vn -0.8792 -0.4191 0.2267
vn -0.5776 -0.4936 0.6502
vn -0.8100 -0.5864 -0.0069
vn 0.4285 0.2696 -0.8624
vn -0.8651 0.1339 0.4834
vn 0.3172 0.9481 0.0193
vn 0.6062 0.5199 -0.6019
vn 0.2728 0.8794 0.3902
vn 0.0617 0.7405 0.6692
vn -0.3879 0.2925 0.8740
vn -0.2197 0.6294 0.7454
vn -0.0136 0.5583 0.8295
vn 0.6351 0.2376 -0.7349
vn -0.1846 -0.7924 -0.5814
vn 0.5205 -0.0998 -0.8480
vn 0.3533 -0.0544 -0.9339
vn 0.5756 0.8176 -0.0126
vn 0.5653 0.8247 0.0174
vn 0.6521 0.7290 -0.2082
vn 0.5103 0.8521 0.1164
vn -0.8388 0.3363 -0.4281
vn -0.9575 -0.2559 -0.1331
vn -0.9968 -0.0624 -0.0491
vn -0.8823 0.0456 -0.4684
vn -0.8413 -0.4592 0.2851
vn -0.4878 -0.7051 0.5147
vn -0.6542 -0.5133 0.5555
vn -0.6794 -0.6460 0.3480
vn 0.4133 -0.8576 0.3063
vn 0.9880 -0.1493 -0.0391
vn 0.8702 -0.4360 -0.2294
vn 0.7994 -0.5247 0.2926
vn 0.2115 -0.9258 0.3133
vn -0.7570 -0.6194 0.2081
vn -0.4376 0.8127 -0.3848
vn 0.5312 0.8412 0.1005
vn 0.7078 0.1707 -0.6855
vn 0.1202 0.6955 0.7084
vn -0.0199 0.7714 0.6360
vn -0.4829 0.3175 0.8161
vn -0.3172 0.1551 0.9356
vn 0.5662 0.2424 -0.7878
vn 0.0503 -0.8508 -0.5230
vn -0.0538 -0.4907 -0.8696
vn 0.6247 0.7376 -0.2564
vn 0.6754 0.7106 -0.1970
vn 0.4936 0.8601 0.1286
vn -0.7982 0.2976 -0.5236
vn -0.9940 -0.0915 0.0592
vn -0.8901 -0.3644 -0.2738
vn -0.8809 -0.3083 0.3591
vn -0.4182 -0.6531 0.6314
vn -0.5644 -0.7499 0.3451
vn 0.6530 -0.7381 0.1697
vn 0.9149 -0.0421 -0.4014
vn 0.9546 0.0875 0.2848
vt 0.717508 0.390370
vt 0.706362 0.526768
vt 0.671380 0.527487
vt 0.680017 0.379797
vt 0.694346 0.627884
vt 0.658487 0.631464
vt 0.642648 0.620975
vt 0.646027 0.542758
vt 0.646346 0.400052
vt 0.442865 0.488230
vt 0.440857 0.620748
vt 0.365822 0.603625
vt 0.373783 0.472410
vt 0.441243 0.684511
vt 0.360187 0.675209
vt 0.303230 0.645297
vt 0.296478 0.569690
vt 0.298966 0.441388
vt 0.214334 0.443727
vt 0.216233 0.556242
vt 0.179700 0.566033
vt 0.173866 0.474125
vt 0.233613 0.652814
vt 0.198604 0.648941
vt 0.177403 0.641342
vt 0.159709 0.584894
vt 0.145387 0.511083
vt 0.897236 0.528389
vt 0.881725 0.588813
vt 0.823109 0.576466
vt 0.840570 0.509837
vt 0.868333 0.634863
vt 0.805364 0.628740
vt 0.770357 0.608118
vt 0.783569 0.552318
vt 0.803097 0.469437
vt 0.225698 0.118782
vt 0.226326 0.171854
vt 0.163689 0.292357
vt 0.131429 0.246703
vt 0.209638 0.236776
vt 0.171713 0.338325
vt 0.149365 0.409646
vt 0.117809 0.412286
vt 0.055389 0.402845
vt 0.766325 0.848484
vt 0.821724 0.817387
vt 0.819128 0.854658
vt 0.766325 0.887443
vt 0.869580 0.808249
vt 0.865803 0.850040
vt 0.859902 0.884530
vt 0.822629 0.894841
vt 0.770484 0.924111
vt 0.551183 0.894613
vt 0.601575 0.857501
vt 0.600977 0.888147
vt 0.556287 0.926358
vt 0.658007 0.819912
vt 0.655794 0.857013
vt 0.653238 0.892463
vt 0.599227 0.920465
vt 0.563040 0.945841
vt 0.551183 0.831689
vt 0.594689 0.798863
vt 0.602874 0.826723
vt 0.551337 0.860825
vt 0.650108 0.754039
vt 0.657551 0.782346
vt 0.772611 0.781935
vt 0.826554 0.762908
vt 0.823695 0.787529
vt 0.769678 0.811783
vt 0.863575 0.754039
vt 0.866265 0.772199
vt 0.688881 0.157704
vt 0.678026 0.103989
vt 0.775378 0.211151
vt 0.760889 0.248160
vt 0.696640 0.073212
vt 0.812773 0.191999
vt 0.896825 0.342253
vt 0.844444 0.342199
vt 0.809374 0.331544
vt 0.612755 0.152096
vt 0.584969 0.131876
vt 0.613813 0.087748
vt 0.637706 0.130634
vt 0.554613 0.118681
vt 0.608099 0.054159
vt 0.380751 0.098076
vt 0.333119 0.138725
vt 0.271162 0.107798
vt 0.294485 0.054159
vt 0.291242 0.189773
vt 0.248350 0.183908
vt 0.913231 0.453063
vt 0.856247 0.436896
vt 0.814302 0.391461
vt 0.144872 0.451092
vt 0.119457 0.492524
vt 0.119840 0.561597
vt 0.059376 0.611783
vt 0.054159 0.525049
vt 0.133834 0.630265
vt 0.149396 0.687110
vt 0.088218 0.733771
vt 0.075342 0.680929
vt 0.210283 0.334621
vt 0.166436 0.397607
vt 0.301360 0.294425
vt 0.251361 0.299189
vt 0.251229 0.430249
vt 0.252190 0.555467
vt 0.271738 0.654695
vt 0.442865 0.280932
vt 0.376999 0.290205
vt 0.626531 0.245269
vt 0.583147 0.265913
vt 0.606634 0.444407
vt 0.568903 0.472859
vt 0.551183 0.282601
vt 0.610542 0.575359
vt 0.612522 0.644742
vt 0.551183 0.645722
vt 0.559359 0.590250
vt 0.709796 0.257085
vt 0.664485 0.233623
vt 0.766130 0.322550
vt 0.763062 0.425933
vt 0.747318 0.536397
vt 0.736752 0.620634
s 1
usemtl Material
f 26/1/26 74/2/74 75/3/75 71/4/71
f 74/2/74 11/5/11 29/6/29 75/3/75
f 75/3/75 29/6/29 4/7/4 42/8/42
f 71/4/71 75/3/75 42/8/42 12/9/12
f 25/10/25 70/11/70 76/12/76 67/13/67
f 70/11/70 14/14/14 32/15/32 76/12/76
f 76/12/76 32/15/32 8/16/8 45/17/45
f 67/13/67 76/12/76 45/17/45 15/18/15
f 24/19/24 66/20/66 77/21/77 63/22/63
f 66/20/66 17/23/17 35/24/35 77/21/77
f 77/21/77 35/24/35 6/25/6 48/26/48
f 63/22/63 77/21/77 48/26/48 18/27/18
f 23/28/23 62/29/62 78/30/78 59/31/59
f 62/29/62 20/32/20 38/33/38 78/30/78
f 78/30/78 38/33/38 2/34/2 28/35/28
f 59/31/59 78/30/78 28/35/28 10/36/10
f 22/37/22 58/38/58 79/39/79 55/40/55
f 58/38/58 16/41/16 46/42/46 79/39/79
f 79/39/79 46/42/46 5/43/5 37/44/37
f 55/40/55 79/39/79 37/44/37 19/45/19
f 21/46/21 54/47/54 80/48/80 51/49/51
f 54/47/54 11/50/11 41/51/41 80/48/80
f 80/48/80 41/51/41 2/52/2 38/53/38
f 51/49/51 80/48/80 38/53/38 20/54/20
f 17/55/17 53/56/53 81/57/81 35/58/35
f 53/56/53 21/59/21 51/60/51 81/57/81
f 81/57/81 51/60/51 20/61/20 50/62/50
f 35/58/35 81/57/81 50/62/50 6/63/6
f 8/64/8 32/65/32 82/66/82 47/67/47
f 32/65/32 14/68/14 52/69/52 82/66/82
f 82/66/82 52/69/52 21/59/21 53/56/53
f 47/67/47 82/66/82 53/56/53 17/55/17
f 14/70/14 44/71/44 83/72/83 52/73/52
f 44/71/44 4/74/4 29/75/29 83/72/83
f 83/72/83 29/75/29 11/50/11 54/47/54
f 52/73/52 83/72/83 54/47/54 21/46/21
f 9/76/9 57/77/57 84/78/84 27/79/27
f 57/77/57 22/80/22 55/81/55 84/78/84
f 84/78/84 55/81/55 19/82/19 49/83/49
f 27/79/27 84/78/84 49/83/49 1/84/1
f 3/85/3 31/86/31 85/87/85 39/88/39
f 31/86/31 13/89/13 56/90/56 85/87/85
f 85/87/85 56/90/56 22/80/22 57/77/57
f 39/88/39 85/87/85 57/77/57 9/76/9
f 13/91/13 43/92/43 86/93/86 56/94/56
f 43/92/43 7/95/7 34/96/34 86/93/86
f 86/93/86 34/96/34 16/41/16 58/38/58
f 56/94/56 86/93/86 58/38/58 22/37/22
f 19/82/19 61/97/61 87/98/87 49/83/49
f 61/97/61 23/28/23 59/31/59 87/98/87
f 87/98/87 59/31/59 10/36/10 40/99/40
f 49/83/49 87/98/87 40/99/40 1/84/1
f 5/43/5 36/100/36 88/101/88 37/44/37
f 36/100/36 18/27/18 60/102/60 88/101/88
f 88/101/88 60/102/60 23/103/23 61/104/61
f 37/44/37 88/101/88 61/104/61 19/45/19
f 18/27/18 48/26/48 89/105/89 60/102/60
f 48/26/48 6/25/6 50/106/50 89/105/89
f 89/105/89 50/106/50 20/107/20 62/108/62
f 60/102/60 89/105/89 62/108/62 23/103/23
f 16/41/16 65/109/65 90/110/90 46/42/46
f 65/109/65 24/19/24 63/22/63 90/110/90
f 90/110/90 63/22/63 18/27/18 36/100/36
f 46/42/46 90/110/90 36/100/36 5/43/5
f 7/95/7 33/111/33 91/112/91 34/96/34
f 33/111/33 15/18/15 64/113/64 91/112/91
f 91/112/91 64/113/64 24/19/24 65/109/65
f 34/96/34 91/112/91 65/109/65 16/41/16
f 15/18/15 45/17/45 92/114/92 64/113/64
f 45/17/45 8/16/8 47/115/47 92/114/92
f 92/114/92 47/115/47 17/23/17 66/20/66
f 64/113/64 92/114/92 66/20/66 24/19/24
f 13/91/13 69/116/69 93/117/93 43/92/43
f 69/116/69 25/10/25 67/13/67 93/117/93
f 93/117/93 67/13/67 15/18/15 33/111/33
f 43/92/43 93/117/93 33/111/33 7/95/7
f 3/85/3 30/118/30 94/119/94 31/86/31
f 30/118/30 12/9/12 68/120/68 94/119/94
f 94/119/94 68/120/68 25/121/25 69/122/69
f 31/86/31 94/119/94 69/122/69 13/89/13
f 12/9/12 42/8/42 95/123/95 68/120/68
f 42/8/42 4/7/4 44/124/44 95/123/95
f 95/123/95 44/124/44 14/125/14 70/126/70
f 68/120/68 95/123/95 70/126/70 25/121/25
f 9/76/9 73/127/73 96/128/96 39/88/39
f 73/127/73 26/1/26 71/4/71 96/128/96
f 96/128/96 71/4/71 12/9/12 30/118/30
f 39/88/39 96/128/96 30/118/30 3/85/3
f 1/84/1 40/99/40 97/129/97 27/79/27
f 40/99/40 10/36/10 72/130/72 97/129/97
f 97/129/97 72/130/72 26/1/26 73/127/73
f 27/79/27 97/129/97 73/127/73 9/76/9
f 10/36/10 28/35/28 98/131/98 72/130/72
f 28/35/28 2/34/2 41/132/41 98/131/98
f 98/131/98 41/132/41 11/5/11 74/2/74
f 72/130/72 98/131/98 74/2/74 26/1/26
